  <svg xmlns="http://www.w3.org/2000/svg" viewBox="0 0 475 475"><path className="pikachu1" d="M309.154 434.449c-.273-.444-3.059-2.102-6.19-3.686-6.53-3.304-11.264-9.645-14.116-18.905l-1.696-5.508-5.559-.549c-10.783-1.065-17.717-2.69-33.059-7.749-24.668-8.134-34.452-7.856-50.211 1.43l-6.712 3.954.6 7.77c.75 9.733-.063 14.165-3.305 18.019-3.194 3.795-5.093 3.797-11.242.014-5.226-3.216-9.135-9.399-11.137-17.618-.934-3.833-1.343-4.218-5.634-5.298-13.281-3.344-27.852-15.965-32.473-28.128-1.092-2.873-2.765-12.485-3.927-22.56-1.114-9.654-2.659-20.865-3.433-24.912-1.754-9.164-5.374-21.468-6.318-21.472-5.28-.025-35.79-3.736-49.536-6.027-9.805-1.633-19.727-2.97-22.05-2.97-4.632 0-6.622-1.326-6.622-4.412 0-1.107-1.208-2.976-2.685-4.154l-2.685-2.141 2.226-3.773c2.016-3.416 2.08-3.933.685-5.475-2.787-3.08-1.177-6.623 3.815-8.402 1.368-.488 1.7-1.286 1.26-3.038-.862-3.433 1.255-4.722 6.56-3.994 3.388.464 5.416.128 8.396-1.39 3.704-1.886 29.718-10.397 35.678-11.671 1.513-.323 2.726-.917 2.696-1.319-.03-.402-2.695-2.614-5.924-4.916-18.497-13.186-29.042-37.912-23.59-55.315 4.604-14.694 10.61-25.163 19.59-34.142l7.827-7.828-1.106-10.18c-1.942-17.864 1.996-47.888 8.44-64.346 6.702-17.12 15.228-31.888 24.28-42.06l3.51-3.944 2.371 2.64c1.848 2.057 2.735 4.978 4.021 13.236 3.595 23.08 3.035 49.75-1.522 72.427-1.138 5.667-1.836 10.537-1.55 10.823.286.286 2.25.04 4.364-.547 4.936-1.371 28.88-1.39 39.02-.03 8.726 1.168 11.842 1.988 21.437 5.642l6.614 2.518 5.886-4.525c8.257-6.347 27.247-16.494 50.704-27.09 7.997-3.613 30.296-9.997 45.53-13.035 14.034-2.799 43.658-5.534 50.218-4.637 9.033 1.236 7.539 6.532-5.536 19.612-12.007 12.014-29.25 23.462-52.03 34.544-14.62 7.113-42.717 18.05-53 20.631-1.1.276-3.62.904-5.599 1.394l-3.6.893 4.808 9.752c2.643 5.364 9.112 20.533 14.374 33.709 9.525 23.85 16.808 38.265 26.55 52.543 2.814 4.125 6.32 9.475 7.792 11.889 1.471 2.414 7.297 10.925 12.946 18.914 5.649 7.989 11.639 16.917 13.311 19.84 1.673 2.923 3.4 5.537 3.84 5.808 1.14.705 11.14-4.446 11.757-6.057.304-.79-5.144-7.368-13.174-15.907-9.307-9.898-13.5-15.055-13.098-16.105.326-.85.593-1.688.593-1.862 0-.174 5.963-4.826 13.25-10.34 7.288-5.512 14.796-11.334 16.686-12.937l3.435-2.916-8.866-18.413c-4.876-10.128-9.407-19.089-10.069-19.914-2.458-3.065-5.578-10.286-5.658-13.096-.053-1.879 1.294-4.805 3.82-8.295 13.325-18.413 72.07-77.981 95.767-97.11 22.216-17.933 22.82-18.393 27.08-20.649l3.944-2.089 1.796 2.219c5.2 6.421 18.341 63.325 20.443 88.52.564 6.756.485 7.091-2.272 9.615-1.57 1.438-8.256 5.89-14.856 9.89-6.6 4.002-18.663 11.826-26.808 17.386-8.144 5.56-21.644 14.394-30 19.63-19.553 12.255-30.692 20.508-30.692 22.74 0 .961 1.843 5.546 4.095 10.19 5.682 11.713 5.885 13.78 1.734 17.662-3.42 3.197-24.189 18.005-26.204 18.682-1.9.638.807 4.483 11.409 16.205 10.327 11.418 12.22 14.692 9.846 17.024-1.113 1.092-14.106 6.977-27.63 12.512-1.237.507-2.25 1.507-2.25 2.224 0 .716 2.7 3.974 6 7.24 7.566 7.487 7.812 9.695 1.322 11.906-2.573.877-5.893 1.594-7.377 1.594-1.485 0-3.131.563-3.659 1.25-.527.688-1.497 6.619-2.156 13.181-1.238 12.344-3.351 19.047-7.347 23.3l-2.12 2.256 2.179 10.257c2.613 12.305 2.84 20.945.6 22.804-.856.711-2.183 2.791-2.948 4.622-1.325 3.171-4.603 4.58-5.874 2.525zM87.836 171.14c.56-.888.727-2.37.372-3.293-.5-1.304-1.067-1.453-2.541-.664-2.152 1.152-3.432 3.778-2.543 5.217.844 1.364 3.508.652 4.712-1.26zm75.87-13.541c2.193-1.985 2.36-4.659.392-6.292-3.126-2.595-8.158 3.321-5.524 6.495 1.565 1.886 2.881 1.834 5.132-.203z" fill="#f1dd9e"/><path className="pikachu2" d="M307.761 433.08c-.692-.692-3.157-2.173-5.477-3.292-5.416-2.611-10.206-8.998-12.602-16.803-1.041-3.392-2.513-6.475-3.27-6.85-.758-.376-5.775-1.178-11.149-1.782-6.999-.788-14.659-2.709-27-6.771-15.36-5.057-18.15-5.677-25.729-5.716-9.78-.05-16.084 1.885-25.222 7.745l-5.722 3.669.188 10.372c.18 9.922.064 10.55-2.664 14.487-1.568 2.263-3.578 4.106-4.466 4.096-2.527-.03-10.85-5.649-12.82-8.655-.978-1.493-2.73-5.665-3.891-9.27l-2.113-6.556-6.08-2.118c-8.93-3.109-14.976-6.97-21.615-13.804-8.197-8.438-10.413-13.762-12.203-29.321-3.375-29.336-8.14-51.625-11.403-53.333-.819-.428-7.564-1.298-14.989-1.933-7.425-.634-21.825-2.563-32-4.285s-20.075-3.064-22-2.981c-6.241.268-8-.492-8-3.456 0-1.732-.982-3.49-2.75-4.923-2.735-2.217-2.74-2.246-1-5.369 2.143-3.843 2.175-4.85.226-7.004-1.977-2.184-.973-4.664 2.645-6.536 2.165-1.119 2.88-2.206 2.88-4.38 0-3.441 1.236-4.011 6.265-2.884 3.08.69 4.63.41 8.5-1.542 5.68-2.862 28.237-10.288 34.101-11.226 2.298-.367 4.376-.989 4.618-1.381.243-.392-2.805-3.329-6.772-6.525-8.821-7.108-14.786-14.27-19.216-23.076-3.769-7.491-6.03-18.511-5.137-25.03.71-5.176 6.336-19.776 10.557-27.393 3.12-5.632 11.735-15.394 15.929-18.052l2.345-1.487-1.195-11.586c-2.283-22.152 2.534-50.499 12.507-73.585 6.77-15.671 20.2-35.29 24.158-35.29 2.165 0 3.477 3.826 5.443 15.878 3.495 21.423 2.373 54.273-2.57 75.244-1.9 8.056-1.894 8.245.216 7.352 3.696-1.564 22.33-2.304 35.483-1.41 11.53.784 15.379 1.494 24 4.428 5.647 1.921 10.888 3.497 11.646 3.5.758.005 3.045-1.497 5.08-3.337 4.1-3.702 25.267-15.595 38.813-21.806 4.8-2.201 10.978-5.042 13.728-6.314 5.977-2.763 30.23-9.722 43.5-12.481 10.81-2.248 36.947-5.054 47.069-5.054 13.166 0 12.596 4.52-2.473 19.61-12.553 12.572-27.265 22.383-50.972 33.991-16.585 8.121-49.084 20.287-58.394 21.86-2.326.393-4.23 1.028-4.23 1.41 0 .382 1.557 3.626 3.46 7.21 3.339 6.288 17.688 40.679 21.653 51.895 2.59 7.331 14.665 29.107 21.179 38.199 2.887 4.029 6.327 9.125 7.645 11.325 1.318 2.2 6.777 10.3 12.13 18 5.354 7.7 11.425 16.843 13.492 20.319 3.374 5.675 4.014 6.254 6.282 5.685 3.114-.782 11.16-5.422 11.16-6.437 0-.409-6.072-7.228-13.493-15.155s-13.496-15.175-13.5-16.107c-.008-1.722 2.288-3.697 21.868-18.805 6.058-4.675 11.04-9.175 11.069-10 .065-1.812-15.946-34.893-19.452-40.19-1.368-2.067-3.021-5.758-3.675-8.204-1.122-4.192-1.027-4.692 1.663-8.776 6.712-10.19 44.747-50.769 69.31-73.944 25.28-23.852 53.728-46.886 57.908-46.886 1.196 0 2.524 1.244 3.489 3.267 1.932 4.052 9.061 29.13 11.722 41.233 3.476 15.816 7.187 41.614 6.884 47.86l-.294 6.05-18.5 11.565c-10.175 6.362-23.704 15.244-30.064 19.739-6.36 4.494-17.267 11.685-24.235 15.979-14.845 9.147-30.727 20.213-31.354 21.845-.241.63 1.59 5.458 4.07 10.73 6.231 13.248 6.325 13.836 2.774 17.387-1.623 1.623-8.63 6.907-15.57 11.742-6.942 4.835-12.62 9.114-12.62 9.51 0 .395 3.044 4.065 6.766 8.156 14.086 15.483 17.411 19.801 16.78 21.793-.408 1.28-4.831 3.757-13.45 7.526-7.065 3.09-13.239 5.632-13.72 5.65-.483.017-1.732.679-2.776 1.47-1.803 1.364-1.56 1.798 4.75 8.486 3.657 3.877 6.65 7.7 6.65 8.496 0 1.985-3.06 3.45-10.292 4.925l-6.125 1.25-1.729 13.598c-1.713 13.472-2.953 17.35-7.433 23.246l-2.282 3.003 2.015 8.497c1.108 4.673 2.09 11.495 2.18 15.159.138 5.566-.188 7.047-1.985 9-1.182 1.286-2.311 3.238-2.508 4.338-.424 2.364-4.717 3.225-6.615 1.327zM138.59 363.869c1.163-4.126.454-12.703-1.332-16.114-.577-1.1-3.014-4.025-5.417-6.5l-4.37-4.5.521 5c1.604 15.38 2.804 24.436 3.7 27.913l1.008 3.913 2.398-2.913c1.318-1.602 2.89-4.662 3.492-6.799zM55.263 280.65c-.332-.332-1.194-.368-1.916-.079-.798.32-.561.556.604.604 1.054.044 1.645-.193 1.312-.525zm14.274-12.277c7.698-2.23 11.997-4.121 11.997-5.28 0-.461-.73-.839-1.622-.839-1.288 0-1.38-.293-.444-1.42 1.017-1.225.453-1.228-4.128-.02-8.028 2.117-20.16 7.005-20.591 8.296-.598 1.793 7.434 1.392 14.788-.737zm160.997-19.119c0-.55-.198-1-.44-1-.243 0-.72.45-1.06 1-.34.55-.141 1 .441 1 .583 0 1.06-.45 1.06-1zm-2-4.5c.685-.825 2.765-1.5 4.623-1.5 3.52 0 4.528-1.344 1.795-2.393-2.313-.888-8.703-.713-10.271.281-1.055.669-1.103 1.326-.215 2.985 1.345 2.512 2.372 2.67 4.068.627zm-141-72.5c2.25-2.25 2.375-2.865 1.013-5-1.754-2.751-6.944 2.13-5.703 5.364.834 2.174 2.263 2.064 4.69-.364zm16 .5c1.595-.825 7.086-3.026 12.2-4.89 5.115-1.865 12.298-4.79 15.962-6.5 3.664-1.71 6.982-3.11 7.373-3.11 1.646 0 13.568-9.302 16.876-13.167 4.079-4.765 4.706-9.232 1.8-12.82-3.86-4.768-21.804-3.392-38.21 2.93-4.126 1.589-8.728 3.158-10.229 3.487-3.429.75-15.18 11.619-18.938 17.516l-2.833 4.445 2.58 2.693c1.566 1.635 2.796 4.308 3.131 6.804.524 3.906.723 4.112 3.97 4.112 1.88 0 4.723-.675 6.318-1.5zm60.95-14.94c1.884-2.27.914-7.008-1.505-7.354-2.978-.426-5.833 3.112-5.044 6.254.726 2.894 4.53 3.533 6.55 1.1zm248.35-27.086c2.901-4.307 5.824-8.015 6.495-8.239.712-.237 1.476.87 1.834 2.657 1.143 5.715 2.962 5.803 6.343.308 1.884-3.061 3.717-4.92 4.77-4.836 1.11.088 2.6-1.601 4.235-4.797 1.81-3.54 3.155-4.975 4.759-5.082 1.23-.082 3.113-.943 4.187-1.915 1.073-.971 2.382-1.5 2.91-1.174 1.375.85 2.266-2.099 1.579-5.225-.323-1.47-2.385-8.183-4.582-14.921-4.29-13.151-4.952-13.854-9.893-10.493-3.677 2.501-21.551 17.147-27.401 22.453-4.453 4.038-4.976 4.955-5.07 8.896-.059 2.417-.477 5.902-.931 7.745l-.825 3.35 3.088-1.597c1.699-.878 3.284-1.26 3.524-.85.676 1.16.078 15.338-.812 19.246-.998 4.383-.67 4.07 5.79-5.526zM96.09 115.516c.685-9.219 1.59-18.112 2.011-19.762.68-2.663.588-2.853-.822-1.692-1.819 1.498-2.35 4.313-3.761 19.915-.923 10.207-.499 20.126.805 18.823.287-.287 1.082-8.065 1.767-17.284zm191.445-12.806c7.245-1.49 10-3.205 10-6.227 0-1.036-.824-1.22-3.25-.723-5.748 1.176-23.218 6.655-24.2 7.59-1.527 1.454 9.174 1.062 17.45-.64z" fill="#f1d579"/><path className="pikachu3" d="M307.761 433.08c-.692-.692-3.157-2.173-5.477-3.292-5.416-2.611-10.206-8.998-12.602-16.803-1.041-3.392-2.513-6.475-3.27-6.85-.758-.376-5.775-1.178-11.149-1.782-6.999-.788-14.659-2.709-27-6.771-15.36-5.057-18.15-5.677-25.729-5.716-9.78-.05-16.084 1.885-25.222 7.745l-5.722 3.669.188 10.372c.18 9.922.064 10.55-2.664 14.487-1.568 2.263-3.578 4.106-4.466 4.096-2.527-.03-10.85-5.649-12.82-8.655-.978-1.493-2.73-5.665-3.891-9.27l-2.113-6.556-6.08-2.118c-8.93-3.109-14.976-6.97-21.615-13.804-8.197-8.438-10.413-13.762-12.203-29.321-3.375-29.336-8.14-51.625-11.403-53.333-.819-.428-7.564-1.298-14.989-1.933-7.425-.634-21.825-2.563-32-4.285s-20.075-3.064-22-2.981c-6.241.268-8-.492-8-3.456 0-1.732-.982-3.49-2.75-4.923-2.735-2.217-2.74-2.246-1-5.369 2.143-3.843 2.175-4.85.226-7.004-1.977-2.184-.973-4.664 2.645-6.536 2.165-1.119 2.88-2.206 2.88-4.38 0-3.441 1.236-4.011 6.265-2.884 3.08.69 4.63.41 8.5-1.542 5.68-2.862 28.237-10.288 34.101-11.226 2.298-.367 4.376-.989 4.618-1.381.243-.392-2.805-3.329-6.772-6.525-8.821-7.108-14.786-14.27-19.216-23.076-3.769-7.491-6.03-18.511-5.137-25.03.71-5.176 6.336-19.776 10.557-27.393 3.12-5.632 11.735-15.394 15.929-18.052l2.345-1.487-1.195-11.586c-2.283-22.152 2.534-50.499 12.507-73.585 6.77-15.671 20.2-35.29 24.158-35.29 2.165 0 3.477 3.826 5.443 15.878 3.495 21.423 2.373 54.273-2.57 75.244-1.9 8.056-1.894 8.245.216 7.352 3.696-1.564 22.33-2.304 35.483-1.41 11.53.784 15.379 1.494 24 4.428 5.647 1.921 10.888 3.497 11.646 3.5.758.005 3.045-1.497 5.08-3.337 4.1-3.702 25.267-15.595 38.813-21.806 4.8-2.201 10.978-5.042 13.728-6.314 5.977-2.763 30.23-9.722 43.5-12.481 10.81-2.248 36.947-5.054 47.069-5.054 13.166 0 12.596 4.52-2.473 19.61-12.553 12.572-27.265 22.383-50.972 33.991-16.585 8.121-49.084 20.287-58.394 21.86-2.326.393-4.23 1.028-4.23 1.41 0 .382 1.557 3.626 3.46 7.21 3.339 6.288 17.688 40.679 21.653 51.895 2.59 7.331 14.665 29.107 21.179 38.199 2.887 4.029 6.327 9.125 7.645 11.325 1.318 2.2 6.777 10.3 12.13 18 5.354 7.7 11.425 16.843 13.492 20.319 3.374 5.675 4.014 6.254 6.282 5.685 3.114-.782 11.16-5.422 11.16-6.437 0-.409-6.072-7.228-13.493-15.155s-13.496-15.175-13.5-16.107c-.008-1.722 2.288-3.697 21.868-18.805 6.058-4.675 11.04-9.175 11.069-10 .065-1.812-15.946-34.893-19.452-40.19-1.368-2.067-3.021-5.758-3.675-8.204-1.122-4.192-1.027-4.692 1.663-8.776 6.712-10.19 44.747-50.769 69.31-73.944 25.28-23.852 53.728-46.886 57.908-46.886 1.196 0 2.524 1.244 3.489 3.267 1.932 4.052 9.061 29.13 11.722 41.233 3.476 15.816 7.187 41.614 6.884 47.86l-.294 6.05-18.5 11.565c-10.175 6.362-23.704 15.244-30.064 19.739-6.36 4.494-17.267 11.685-24.235 15.979-14.845 9.147-30.727 20.213-31.354 21.845-.241.63 1.59 5.458 4.07 10.73 6.231 13.248 6.325 13.836 2.774 17.387-1.623 1.623-8.63 6.907-15.57 11.742-6.942 4.835-12.62 9.114-12.62 9.51 0 .395 3.044 4.065 6.766 8.156 14.086 15.483 17.411 19.801 16.78 21.793-.408 1.28-4.831 3.757-13.45 7.526-7.065 3.09-13.239 5.632-13.72 5.65-.483.017-1.732.679-2.776 1.47-1.803 1.364-1.56 1.798 4.75 8.486 3.657 3.877 6.65 7.7 6.65 8.496 0 1.985-3.06 3.45-10.292 4.925l-6.125 1.25-1.729 13.598c-1.713 13.472-2.953 17.35-7.433 23.246l-2.282 3.003 2.015 8.497c1.108 4.673 2.09 11.495 2.18 15.159.138 5.566-.188 7.047-1.985 9-1.182 1.286-2.311 3.238-2.508 4.338-.424 2.364-4.717 3.225-6.615 1.327zm-131.783-52.253c15.975-7.031 17.54-7.482 29.6-8.53 7.785-.676 13.313-.524 22.396.613 7.532.944 17.317 1.373 26.06 1.143l14-.368 9.756-4.655c18.635-8.891 25.293-20.297 27.103-46.437.548-7.915.476-8.271-2.383-11.87-2.917-3.67-4.96-9.03-4.97-13.04-.003-1.14-2.501-5.64-5.551-10-3.05-4.361-6.876-10.235-8.502-13.054-2.139-3.708-3.717-5.28-5.705-5.681-5.907-1.194-12.248-10.99-12.248-18.922 0-3.259-2.545-8.772-4.05-8.772-.55 0-1.417 1.1-1.928 2.443-1.013 2.665-2.356 2.572-10.108-.693-4.249-1.79-22.816-3.225-24.767-1.914-1.055.71-1.102 1.379-.215 3.037 1.345 2.512 2.372 2.67 4.068.627 2.073-2.498 5.615-1.844 6.907 1.275.632 1.526 2.15 3.214 3.371 3.75 1.97.865 2.255 1.827 2.51 8.498.28 7.292.38 7.563 3.299 8.855 4.188 1.854 8.713 5.834 10.45 9.191 1.998 3.866 1.908 15.192-.156 19.542-3.995 8.418-10.926 10.413-20.173 5.805-8.972-4.47-17.83-17.194-14.376-20.648 1.869-1.869 1.405-2.642-2.582-4.305-2.062-.86-5.198-2.966-6.968-4.679-2.696-2.61-3.319-2.85-3.841-1.49-.93 2.424 3.815 11.943 8.47 16.993 7.566 8.209 3.535 10.98-4.615 3.172l-4.738-4.54-15.03-.3c-24.416-.486-38.936-4.302-63.93-16.804-5.553-2.779-12.235-6.611-14.847-8.518-3.952-2.885-4.85-3.2-5.357-1.881-.91 2.372-3.556 1.913-5.898-1.024l-2.08-2.608-8.458 1.711c-10.55 2.135-27.623 7.746-35.197 11.568-4.594 2.318-6.24 2.705-8.25 1.941-1.602-.61-2.51-.606-2.51.007 0 1.382 6.97 4.315 10.476 4.41 4.373.116 4.67 3.283.447 4.756l-3.233 1.127 3.332 1.598c3.932 1.886 4.87 3.826 2.31 4.782-1.008.376-2.448 1.54-3.2 2.586-.751 1.046-2.71 2.718-4.35 3.716-2.581 1.57-2.734 1.887-1.134 2.35 5.85 1.689 49.74 7.664 56.298 7.664 4.583 0 6.185-1.656 5.824-6.018-.283-3.409.812-4.53 3.043-3.117 2.058 1.303 9.844 25.594 11.633 36.292.888 5.311 2.03 14.396 2.54 20.188.509 5.792 1.886 14.626 3.061 19.63 2.484 10.578 3.06 11.151 14.806 14.703 10.215 3.09 14.638 2.476 29.59-4.105zM41.534 277.254c1.22-.788 1.09-.972-.69-.985-1.206-.008-2.47.435-2.81.985-.787 1.273 1.53 1.273 3.5 0zm165.464-14.35c1.667-1.219 1.542-1.304-1.3-.887-1.728.253-2.896.86-2.595 1.349.76 1.23 1.741 1.113 3.895-.461zm5.536-11.028c0-.207-.675-.937-1.5-1.622-1.228-1.02-1.5-.951-1.5.378 0 .892.675 1.622 1.5 1.622s1.5-.17 1.5-.378zm18.985-.372c-.036-1.778-1.747-3.444-2.419-2.357-.376.609-.406 1.557-.066 2.107.721 1.166 2.507 1.346 2.485.25zm-10.985-4.809c0-.857-.45-1.28-1-.941-.55.34-1 1.042-1 1.56 0 .517.45.94 1 .94s1-.702 1-1.559zM115.35 224.504c-.193-.412-2.997-6.206-6.231-12.875l-5.88-12.126-5.267-.543c-6.517-.673-9.438-2.162-9.438-4.813 0-1.875.42-1.984 5.265-1.379 3.671.459 6.472.2 9.25-.856 2.261-.858 8.528-1.689 14.485-1.919 11.828-.456 18.626-2.712 21.53-7.145 3.316-5.06 7.188-1.772 4.09 3.471-1.445 2.447-1.525 3.718-.575 9.139.608 3.463 1.486 10.049 1.953 14.636.466 4.586.999 8.49 1.183 8.674.185.185 2.647-.868 5.471-2.34 2.825-1.47 8.272-4.249 12.106-6.174l6.97-3.5.458-7.536c.58-9.529 4.28-16.974 10.652-21.43 3.979-2.784 5.019-3.034 12.595-3.034 9.489 0 10.895-.75 13.833-7.377 1.585-3.575 1.816-5.59 1.26-11-.883-8.61-4.622-17.123-7.52-17.123-1.158 0-3.393-.666-4.968-1.48-6.074-3.142-22.617-6.58-37.166-7.726-13.043-1.027-15.777-.96-23.825.589-5 .962-12.282 3.065-16.181 4.673-3.9 1.608-7.49 2.676-7.978 2.375-1.77-1.094-.805-2.53 3.404-5.072 2.36-1.426 5.262-4.073 6.448-5.883 3.998-6.099 6.358-20.116 7.866-46.726.743-13.109.587-13.384-5.498-9.674-11.739 7.156-27.55 23.23-28.542 29.016-1.878 10.948-2.457 25.656-1.374 34.887 1.134 9.662 1.196 9.824 3.446 8.969 4.28-1.628 3.896 1.244-.735 5.485-2.443 2.237-6.557 6.35-9.143 9.14l-4.701 5.072 3.01-.442c3.738-.548 6.673 1.882 7.467 6.184.8 4.342-2.81 15.307-6.515 19.786-5.36 6.479-13.362 5.873-15.653-1.185l-1.133-3.488-1.112 4c-1.517 5.46-1.423 6.27.81 6.979 3.636 1.154 13.97 19.384 14.044 24.771.013.963.923 2.65 2.023 3.75 1.81 1.81 3.334 2 16.084 2 7.745 0 13.925-.337 13.732-.75zm-9.454-43.75c-1.084-2.824.446-4.5 4.107-4.5 2.844 0 3.531.383 3.531 1.965 0 3.405-6.48 5.555-7.638 2.535zm48.536-5.87c-6.794-4.718-8.08-12.535-3.336-20.29 5.27-8.614 13.984-11.212 22.622-6.745 3.478 1.799 6.764 8.284 6.79 13.405.061 11.626-16.496 20.281-26.076 13.63zm10.052-17.07c1.884-2.27.914-7.008-1.505-7.354-2.978-.426-5.833 3.112-5.044 6.254.726 2.894 4.53 3.533 6.55 1.1zm277.334 18.802c2.869-1.452 7.866-4.436 11.104-6.632l5.889-3.992-.568-9.62c-.313-5.29-1.915-16.593-3.562-25.118-1.647-8.525-3.484-19.1-4.083-23.5-.6-4.4-2.921-13.512-5.16-20.25-4.367-13.145-5.035-13.848-9.967-10.493-6.397 4.351-24.379 19.6-33.867 28.719-25.998 24.986-39.47 38.304-42.19 41.708l-2.943 3.684 4.782.565c15.968 1.889 29.927 5.108 40.183 9.266 1.088.442 1.267-.106.799-2.447-.332-1.659-.365-3.254-.074-3.545.673-.673 13.514 4.6 18.928 7.772 4.52 2.649 10.002 8.437 12.649 13.356.937 1.74 1.964 3.165 2.283 3.165.319 0 2.927-1.187 5.797-2.638zm-354.284-4.362c2.25-2.25 2.375-2.865 1.013-5-1.754-2.751-6.944 2.13-5.703 5.364.834 2.174 2.263 2.064 4.69-.364zm175.527-29.482c16.007-4.06 15.729-3.818 23.513-20.518 7.475-16.036 10.96-24.298 10.96-25.98 0-3.89-38.022 9.718-62.324 22.305-17.772 9.204-23.463 12.986-24.79 16.474-1.427 3.754-.263 7.104 2.892 8.326 9.109 3.528 34.679 3.216 49.75-.607z" fill="#e4c571"/><path className="pikachu4" d="M307.761 433.08c-.692-.692-3.157-2.173-5.477-3.292-5.416-2.611-10.206-8.998-12.602-16.803-1.041-3.392-2.513-6.475-3.27-6.85-.758-.376-5.775-1.178-11.149-1.782-6.999-.788-14.659-2.709-27-6.771-15.36-5.057-18.15-5.677-25.729-5.716-9.78-.05-16.084 1.885-25.222 7.745l-5.722 3.669.188 10.372c.18 9.922.064 10.55-2.664 14.487-1.568 2.263-3.578 4.106-4.466 4.096-2.527-.03-10.85-5.649-12.82-8.655-.978-1.493-2.73-5.665-3.891-9.27l-2.113-6.556-6.08-2.118c-8.93-3.109-14.976-6.97-21.615-13.804-8.197-8.438-10.413-13.762-12.203-29.321-3.375-29.336-8.14-51.625-11.403-53.333-.819-.428-7.564-1.298-14.989-1.933-7.425-.634-21.825-2.563-32-4.285s-20.075-3.064-22-2.981c-6.241.268-8-.492-8-3.456 0-1.732-.982-3.49-2.75-4.923-2.735-2.217-2.74-2.246-1-5.369 2.143-3.843 2.175-4.85.226-7.004-1.977-2.184-.973-4.664 2.645-6.536 2.165-1.119 2.88-2.206 2.88-4.38 0-3.441 1.236-4.011 6.265-2.884 3.08.69 4.63.41 8.5-1.542 5.68-2.862 28.237-10.288 34.101-11.226 2.298-.367 4.376-.989 4.618-1.381.243-.392-2.805-3.329-6.772-6.525-8.821-7.108-14.786-14.27-19.216-23.076-3.769-7.491-6.03-18.511-5.137-25.03.71-5.176 6.336-19.776 10.557-27.393 3.12-5.632 11.735-15.394 15.929-18.052l2.345-1.487-1.195-11.586c-2.283-22.152 2.534-50.499 12.507-73.585 6.77-15.671 20.2-35.29 24.158-35.29 2.165 0 3.477 3.826 5.443 15.878 3.495 21.423 2.373 54.273-2.57 75.244-1.9 8.056-1.894 8.245.216 7.352 3.696-1.564 22.33-2.304 35.483-1.41 11.53.784 15.379 1.494 24 4.428 5.647 1.921 10.888 3.497 11.646 3.5.758.005 3.045-1.497 5.08-3.337 4.1-3.702 25.267-15.595 38.813-21.806 4.8-2.201 10.978-5.042 13.728-6.314 5.977-2.763 30.23-9.722 43.5-12.481 10.81-2.248 36.947-5.054 47.069-5.054 13.166 0 12.596 4.52-2.473 19.61-12.553 12.572-27.265 22.383-50.972 33.991-16.585 8.121-49.084 20.287-58.394 21.86-2.326.393-4.23 1.028-4.23 1.41 0 .382 1.557 3.626 3.46 7.21 3.339 6.288 17.688 40.679 21.653 51.895 2.59 7.331 14.665 29.107 21.179 38.199 2.887 4.029 6.327 9.125 7.645 11.325 1.318 2.2 6.777 10.3 12.13 18 5.354 7.7 11.425 16.843 13.492 20.319 3.374 5.675 4.014 6.254 6.282 5.685 3.114-.782 11.16-5.422 11.16-6.437 0-.409-6.072-7.228-13.493-15.155s-13.496-15.175-13.5-16.107c-.008-1.722 2.288-3.697 21.868-18.805 6.058-4.675 11.04-9.175 11.069-10 .065-1.812-15.946-34.893-19.452-40.19-1.368-2.067-3.021-5.758-3.675-8.204-1.122-4.192-1.027-4.692 1.663-8.776 6.712-10.19 44.747-50.769 69.31-73.944 25.28-23.852 53.728-46.886 57.908-46.886 1.196 0 2.524 1.244 3.489 3.267 1.932 4.052 9.061 29.13 11.722 41.233 3.476 15.816 7.187 41.614 6.884 47.86l-.294 6.05-18.5 11.565c-10.175 6.362-23.704 15.244-30.064 19.739-6.36 4.494-17.267 11.685-24.235 15.979-14.845 9.147-30.727 20.213-31.354 21.845-.241.63 1.59 5.458 4.07 10.73 6.231 13.248 6.325 13.836 2.774 17.387-1.623 1.623-8.63 6.907-15.57 11.742-6.942 4.835-12.62 9.114-12.62 9.51 0 .395 3.044 4.065 6.766 8.156 14.086 15.483 17.411 19.801 16.78 21.793-.408 1.28-4.831 3.757-13.45 7.526-7.065 3.09-13.239 5.632-13.72 5.65-.483.017-1.732.679-2.776 1.47-1.803 1.364-1.56 1.798 4.75 8.486 3.657 3.877 6.65 7.7 6.65 8.496 0 1.985-3.06 3.45-10.292 4.925l-6.125 1.25-1.729 13.598c-1.713 13.472-2.953 17.35-7.433 23.246l-2.282 3.003 2.015 8.497c1.108 4.673 2.09 11.495 2.18 15.159.138 5.566-.188 7.047-1.985 9-1.182 1.286-2.311 3.238-2.508 4.338-.424 2.364-4.717 3.225-6.615 1.327zm3.773-4.806c0-.539-.724-2.789-1.608-5-1.084-2.71-2.225-4.02-3.5-4.02-2.72 0-2.393 3.251.697 6.923 2.588 3.076 4.411 3.943 4.411 2.097zm-128.15-4.022c-1.058-3.034-2.56-4.622-3.49-3.691-.721.721 2.503 6.693 3.614 6.693.535 0 .483-1.259-.124-3.002zm-9.515-39.609c19.19-8.517 22.112-9.561 28.988-10.363 5.331-.622 11.935-.303 25.677 1.24 16.035 1.8 19.99 1.929 29.677.965 12.512-1.245 23.246-4.958 31.446-10.877 9.258-6.684 14.866-18.723 16.871-36.215 1.498-13.077 1.426-13.532-2.95-18.589-2.433-2.81-4.196-6.012-4.578-8.31-1.073-6.469-2.148-8.833-7.71-16.953-2.978-4.35-6.463-9.773-7.744-12.053-1.602-2.849-3.21-4.338-5.144-4.763-1.547-.34-4.102-1.822-5.676-3.294-3.195-2.987-7.192-12.612-7.192-17.32 0-1.758-1.289-4.977-3.021-7.544-4.661-6.906-6.519-10.96-15.6-34.033-8.538-21.696-13.82-33.167-19.988-43.41-1.865-3.098-3.39-6.36-3.39-7.25 0-2.153 4.849-2.176 5.673-.028.918 2.391 6.197 1.26 26.3-5.638 13.631-4.677 18.215-6.706 20.843-9.225 5.098-4.888 21.183-38.675 21.183-44.497 0-1.795-3.749-1.22-16 2.455-14.433 4.329-28.896 10.159-43.5 17.534-16.925 8.549-23.476 12.615-29.814 18.505-3.07 2.854-5.424 4.287-6.5 3.958-.927-.283-3.968-1.385-6.757-2.448-23.264-8.867-55.23-9.58-74.993-1.674-3.35 1.341-6.62 2.438-7.264 2.438-2.63 0-.843-2.055 4.73-5.44l5.903-3.586 1.62-7.284c2.441-10.968 4.557-30.866 4.567-42.94.005-5.912-.235-10.75-.532-10.75-.296 0-2.252.874-4.346 1.942-8.48 4.327-26.885 21.695-29.065 27.43-1.715 4.51-3.237 29.43-2.36 38.628.747 7.827.985 8.502 3.008 8.53 1.208.017 2.45.284 2.76.594.311.31-3.933 4.991-9.432 10.401-5.498 5.41-9.834 10-9.634 10.199.199.199 1.989-.414 3.978-1.363 3.564-1.7 3.653-1.69 6.228.707 2.364 2.2 2.566 2.962 2.12 7.995-.573 6.462-4.464 14.806-8.318 17.838-5.855 4.606-12.333 1.414-12.483-6.151l-.084-4.25-1.79 4c-.983 2.2-2.062 5.477-2.397 7.282-.52 2.813-.27 3.41 1.76 4.182 3.365 1.28 10.852 13.966 14.096 23.886 2.063 6.31 2.62 9.672 2.282 13.758l-.448 5.407 5.082 3.868c2.796 2.127 6.793 4.66 8.883 5.63 2.501 1.16 4.48 3.094 5.788 5.659 2.994 5.869.717 8.037-3.407 3.244l-2.222-2.585-10.943 2.688c-12.474 3.064-25.796 7.584-32.807 11.132-3.602 1.823-5.649 2.263-8.25 1.775-4.29-.805-4.525.679-.554 3.506 1.8 1.281 4.462 2.068 7 2.068 4.831 0 5.707 2.437 1.457 4.053-2.81 1.068-2.685 1.597.792 3.346 2.978 1.498 3.382 3.296.915 4.08-1.122.355-3.362 1.969-4.978 3.584-3.149 3.15-8.09 4.048-8.09 1.472 0-.805-.922-1.958-2.049-2.56-1.516-.812-1.871-1.665-1.367-3.286.674-2.167.66-2.17-1.452-.284-2.654 2.37-2.683 3.218-.133 3.885 1.352.353 2 1.364 2 3.116 0 2.023.496 2.595 2.25 2.597 1.238.002 6.849.896 12.469 1.987 16.714 3.245 45.76 6.464 55.043 6.099 2.057-.08 2.206-.44 1.642-3.963-.74-4.627.863-6.194 2.974-2.908 2.518 3.921 8.362 22.043 10.115 31.365.922 4.904 2.294 15.047 3.049 22.54 1.546 15.35 3.827 25.867 6.624 30.543 1.877 3.139 3.041 3.674 15.834 7.284 5.945 1.678 14.457.379 23.335-3.561zm37.66-94.012c-4.005-3.619-9.199-13.076-10.447-19.023-.364-1.73-1.536-3.938-2.604-4.905-2.523-2.283-2.493-6.084.058-7.45 2.061-1.103 4.74-6.292 5.889-11.404.359-1.597 1.543-3.388 2.63-3.98 1.089-.591 4.004-2.27 6.48-3.73 2.474-1.46 6.836-3.195 9.691-3.855 6.515-1.508 18.204-.466 19.033 1.696.917 2.389-1.321 2.967-9.629 2.486-8.215-.476-9.37.02-8.43 3.614.66 2.525 2.554 2.82 4.334.674 2.186-2.634 4.985-1.78 6.565 2 .804 1.925 2.142 3.5 2.973 3.5 2.46 0 3.603 4.796 2.884 12.1-.65 6.6-.771 6.83-5.646 10.796-6.952 5.656-10.082 6.044-16.85 2.09-2.984-1.745-6.618-4.296-8.075-5.67-2.458-2.317-2.722-2.37-3.642-.725-1.755 3.137 3.7 15.2 9.196 20.333 1.427 1.334 2.595 3.021 2.595 3.75 0 2.362-2.9 1.41-7.005-2.297zm-3.006-26.1c1.106-.946 2.011-2.779 2.011-4.07 0-2.136-.143-2.207-1.571-.778-.864.864-2.102 1.578-2.75 1.586-.648.008-1.852.441-2.674.96-1.282.812-1.211 1.16.5 2.454 2.48 1.874 2.104 1.887 4.484-.151zm28.011-6.777c0-1.893-1.085-1.903-3.559-.032-1.859 1.407-1.825 1.47.81 1.5 1.791.02 2.75-.49 2.75-1.468zm-18.818-5c1.396-3.063 3.22-3.191 5.199-.367 1.067 1.524 2.14 1.964 3.755 1.542 1.243-.325 2.806-.138 3.473.415 1.792 1.487 2.582-.459 1.423-3.506-1.093-2.875-2.79-3.376-3.67-1.084-.97 2.527-4.208 1.698-5.862-1.5-.853-1.65-1.89-3-2.306-3-.415 0-1.265 1.35-1.888 3-1.207 3.2-3.134 3.749-6.274 1.788-2.381-1.487-3.13-.877-2.39 1.95.501 1.916 2.008 2.684 6.13 3.126.699.075 1.784-.989 2.41-2.364zM127.534 236.3c-6.494-3.463-12.69-12.41-19.784-28.57l-3.94-8.976-5.388-.582c-6.66-.72-9.075-1.732-8.687-3.644.221-1.09 2.122-1.56 7.3-1.803 28.659-1.348 38.488-3.472 42.185-9.114.85-1.297 2.141-2.357 2.87-2.357 2.45 0 2.696 2.168.573 5.04l-2.107 2.85 2 9.982c2.076 10.353 2.868 26.777 1.501 31.128-.432 1.375-1.657 3.738-2.722 5.25-1.599 2.27-2.666 2.742-6.119 2.706-2.3-.024-5.757-.884-7.682-1.91zm56.72-12.256c-8.13-2.157-13.237-11.57-13.071-24.094.168-12.613 7.565-22.65 18.176-24.663 12.469-2.364 21.397 6.972 21.397 22.376 0 9.105-1.673 14.59-5.99 19.633-6.063 7.084-11.95 9.02-20.511 6.748zm-77.72-44.723c0-2.216 3.68-3.787 5.234-2.234 1.664 1.665.042 4.167-2.702 4.167-1.836 0-2.532-.531-2.532-1.933zm50.017-3.918c-7.337-3.935-9.84-11.655-6.134-18.918 7.785-15.26 28.801-12.34 29.437 4.092.226 5.842-3.28 10.939-9.766 14.194-5.908 2.966-8.923 3.106-13.537.632zm7.933-17.588c1.884-2.27.914-7.009-1.505-7.355-2.978-.426-5.833 3.112-5.044 6.254.726 2.894 4.53 3.533 6.55 1.1zm-122.2 120.809c2.773-.743 2.902-2.028.288-2.858-2.292-.727-6.365 1.15-5.507 2.538.675 1.091 2.03 1.174 5.22.32zm312.994-54.107c2.307-4.9 5.256-5.632 5.256-1.305 0 4.43 2.288 4.793 7.787 1.236 2.592-1.677 8.088-5.116 12.213-7.644 9.172-5.62 15.582-9.788 30.22-19.652 6.204-4.18 18.255-11.782 26.78-16.893 8.525-5.11 17.024-10.422 18.886-11.803l3.386-2.51-.637-8.286c-.588-7.644-2.292-18.037-7.69-46.906-2.86-15.3-9.578-35.5-11.805-35.5-2.243 0-4.157 1.379-20.64 14.87-14.858 12.16-18.243 15.302-47.01 43.63-19.632 19.331-50.739 53.806-53.956 59.797l-1.966 3.66 4.466 9.177c5.435 11.166 9.559 17.866 10.996 17.866.591 0 1.552-1.37 2.136-3.045 1.318-3.78 2.761-3.411 4.217 1.077 1.872 5.77 3.946 4.93 8.587-3.478 5.808-10.52 7.535-9.836 6.386 2.527-.354 3.805-.357 6.919-.007 6.919s1.428-1.681 2.395-3.737zM87.534 172.254c2.25-2.25 2.375-2.865 1.013-5-1.754-2.751-6.944 2.13-5.703 5.364.834 2.174 2.263 2.064 4.69-.364z" fill="#d0b267"/><path className="pikachu5" d="M307.761 433.08c-.692-.692-3.157-2.173-5.477-3.292-5.416-2.611-10.206-8.998-12.602-16.803-1.041-3.392-2.513-6.475-3.27-6.85-.758-.376-5.775-1.178-11.149-1.782-6.999-.788-14.659-2.709-27-6.771-15.36-5.057-18.15-5.677-25.729-5.716-9.78-.05-16.084 1.885-25.222 7.745l-5.722 3.669.188 10.372c.18 9.922.064 10.55-2.664 14.487-1.568 2.263-3.578 4.106-4.466 4.096-2.527-.03-10.85-5.649-12.82-8.655-.978-1.493-2.73-5.665-3.891-9.27l-2.113-6.556-6.08-2.118c-8.93-3.109-14.976-6.97-21.615-13.804-8.197-8.438-10.413-13.762-12.203-29.321-3.375-29.336-8.14-51.625-11.403-53.333-.819-.428-7.564-1.298-14.989-1.933-7.425-.634-21.825-2.563-32-4.285s-20.075-3.064-22-2.981c-6.241.268-8-.492-8-3.456 0-1.732-.982-3.49-2.75-4.923-2.735-2.217-2.74-2.246-1-5.369 2.143-3.843 2.175-4.85.226-7.004-1.977-2.184-.973-4.664 2.645-6.536 2.165-1.119 2.88-2.206 2.88-4.38 0-3.441 1.236-4.011 6.265-2.884 3.08.69 4.63.41 8.5-1.542 5.68-2.862 28.237-10.288 34.101-11.226 2.298-.367 4.376-.989 4.618-1.381.243-.392-2.805-3.329-6.772-6.525-8.821-7.108-14.786-14.27-19.216-23.076-3.769-7.491-6.03-18.511-5.137-25.03.71-5.176 6.336-19.776 10.557-27.393 3.12-5.632 11.735-15.394 15.929-18.052l2.345-1.487-1.195-11.586c-2.283-22.152 2.534-50.499 12.507-73.585 6.77-15.671 20.2-35.29 24.158-35.29 2.165 0 3.477 3.826 5.443 15.878 3.495 21.423 2.373 54.273-2.57 75.244-1.9 8.056-1.894 8.245.216 7.352 3.696-1.564 22.33-2.304 35.483-1.41 11.53.784 15.379 1.494 24 4.428 5.647 1.921 10.888 3.497 11.646 3.5.758.005 3.045-1.497 5.08-3.337 4.1-3.702 25.267-15.595 38.813-21.806 4.8-2.201 10.978-5.042 13.728-6.314 5.977-2.763 30.23-9.722 43.5-12.481 10.81-2.248 36.947-5.054 47.069-5.054 13.166 0 12.596 4.52-2.473 19.61-12.553 12.572-27.265 22.383-50.972 33.991-16.585 8.121-49.084 20.287-58.394 21.86-2.326.393-4.23 1.028-4.23 1.41 0 .382 1.557 3.626 3.46 7.21 3.339 6.288 17.688 40.679 21.653 51.895 2.59 7.331 14.665 29.107 21.179 38.199 2.887 4.029 6.327 9.125 7.645 11.325 1.318 2.2 6.777 10.3 12.13 18 5.354 7.7 11.425 16.843 13.492 20.319 3.374 5.675 4.014 6.254 6.282 5.685 3.114-.782 11.16-5.422 11.16-6.437 0-.409-6.072-7.228-13.493-15.155s-13.496-15.175-13.5-16.107c-.008-1.722 2.288-3.697 21.868-18.805 6.058-4.675 11.04-9.175 11.069-10 .065-1.812-15.946-34.893-19.452-40.19-1.368-2.067-3.021-5.758-3.675-8.204-1.122-4.192-1.027-4.692 1.663-8.776 6.712-10.19 44.747-50.769 69.31-73.944 25.28-23.852 53.728-46.886 57.908-46.886 1.196 0 2.524 1.244 3.489 3.267 1.932 4.052 9.061 29.13 11.722 41.233 3.476 15.816 7.187 41.614 6.884 47.86l-.294 6.05-18.5 11.565c-10.175 6.362-23.704 15.244-30.064 19.739-6.36 4.494-17.267 11.685-24.235 15.979-14.845 9.147-30.727 20.213-31.354 21.845-.241.63 1.59 5.458 4.07 10.73 6.231 13.248 6.325 13.836 2.774 17.387-1.623 1.623-8.63 6.907-15.57 11.742-6.942 4.835-12.62 9.114-12.62 9.51 0 .395 3.044 4.065 6.766 8.156 14.086 15.483 17.411 19.801 16.78 21.793-.408 1.28-4.831 3.757-13.45 7.526-7.065 3.09-13.239 5.632-13.72 5.65-.483.017-1.732.679-2.776 1.47-1.803 1.364-1.56 1.798 4.75 8.486 3.657 3.877 6.65 7.7 6.65 8.496 0 1.985-3.06 3.45-10.292 4.925l-6.125 1.25-1.729 13.598c-1.713 13.472-2.953 17.35-7.433 23.246l-2.282 3.003 2.015 8.497c1.108 4.673 2.09 11.495 2.18 15.159.138 5.566-.188 7.047-1.985 9-1.182 1.286-2.311 3.238-2.508 4.338-.424 2.364-4.717 3.225-6.615 1.327zm4.773-4.358c0-2.162-2.787-8.576-4.595-10.573-1.522-1.682-5.405-1.5-5.405.254 0 1.96 2.928 7.779 4.913 9.763 2.45 2.45 5.087 2.738 5.087.556zm-127.733-1.068c.57-.57-.245-3.161-2.56-8.15-.575-1.237-1.644-2.25-2.376-2.25-1.956 0-1.614 4.023.658 7.75 1.933 3.17 3.06 3.868 4.278 2.65zm129.828-10.705c-1.778-1.778-2.173-.208-.853 3.393l1.25 3.412.333-2.872c.182-1.58-.146-3.35-.73-3.933zm-15.75 3.762c-.325-.849-.806-1.329-1.068-1.067-.263.263-.18.957.182 1.544.986 1.595 1.563 1.285.886-.477zm-111.055-1.457c-.288-1.1-.696-2-.906-2-.211 0-.384.9-.384 2s.408 2 .907 2c.498 0 .67-.9.383-2zm-4.29-18.71c2.475-.834 8.55-3.68 13.5-6.326 16.563-8.852 27.103-9.065 51.803-1.047 22.316 7.244 32.019 8.806 43.484 7.004 17.697-2.783 25.027-10.736 27.37-29.698 1.722-13.927.608-29.055-2.923-39.723-3.832-11.574-6.166-16.344-8.336-17.033-.958-.304-3.303-2.28-5.21-4.39-2.636-2.919-3.64-5.1-4.19-9.097-.59-4.293-2.27-7.604-9.143-18.029-7.315-11.095-9.038-13.077-13.137-15.11-5.482-2.72-9.149-8.84-9.968-16.636-.329-3.136-2.105-7.54-5.324-13.205-2.657-4.675-8.191-17.074-12.3-27.552-9.32-23.775-15.183-36.95-20.444-45.942-4.152-7.097-4.278-10.713-.245-7.064 1.525 1.381 2.859 1.64 5.773 1.12 5.124-.913 36.086-11.424 39.606-13.445 2.939-1.688 8.878-9.857 10.736-14.766.593-1.568 2.91-6.451 5.151-10.851 7.226-14.193 9.623-23.5 6.053-23.5-2.8 0-22.845 5.895-34.256 10.074-18.796 6.883-47.214 22.335-55.314 30.076-3.304 3.157-5.266 3.516-8.213 1.503-4.986-3.407-32.448-8.588-45.751-8.633-6.555-.023-28.583 4.189-34.21 6.54-5.75 2.402-5.332.94.866-3.025 3.34-2.136 5.788-4.477 6.073-5.807 3.88-18.095 6.991-57.719 4.644-59.17-2.644-1.634-19.33 11.153-28.724 22.012-4.08 4.717-5.348 7.055-6.201 11.43-1.662 8.519-2.472 25.869-1.677 35.91.633 8 .947 9.09 2.613 9.09 2.842 0 2.288 1.714-1.356 4.194-3.938 2.68-16.75 16.268-16.75 17.764 0 .589 1.788-.113 3.973-1.559 9.602-6.354 13.767 1.975 7.868 15.733-4.052 9.452-11.747 13.172-16.107 7.788-1.579-1.95-1.841-3.362-1.368-7.356.53-4.48.439-4.797-.976-3.382-.86.859-2.388 4.657-3.398 8.44-1.696 6.352-1.711 6.955-.195 7.878 8.63 5.255 17.975 26.048 16.923 37.651-.484 5.337-.335 5.829 2.634 8.687 1.73 1.666 5.825 4.529 9.1 6.362 3.565 1.996 6.723 4.65 7.87 6.614 2.352 4.028 1.476 5.286-1.642 2.357-1.27-1.194-3.407-2.17-4.746-2.17-6.138.005-37.834 10.005-43.701 13.789-1.575 1.015-3.521 1.26-6.382.802l-4.116-.658.614 3.071c.642 3.207.541 3.304-4.6 4.43-2.95.647-3.725 3.254-1.25 4.203 2.088.802 1.873 2.618-.7 5.889l-2.2 2.796 2.2 1.46c1.24.824 2.2 2.498 2.2 3.839 0 2.056.478 2.378 3.541 2.378 1.949 0 6.786.654 10.75 1.453 12.146 2.45 44.977 6.547 52.453 6.547h7.065l-.554-4.133c-1.09-8.127 2.152-3.495 6.443 9.205 4.551 13.468 6.706 24.278 8.258 41.428 1.055 11.665 4.055 25.688 6.51 30.437.815 1.574 3.855 4.955 6.757 7.514 14.82 13.066 28.163 16.759 42.776 11.838zm28.731-110.221c-3.892-3.418-8.048-10.688-9.736-17.034-.653-2.455-2.044-5.554-3.091-6.885-2.317-2.945-2.398-4.495-.326-6.215 1.87-1.552 5.86-9.291 6.798-13.185.364-1.512 1.167-2.75 1.783-2.75.616 0 3.203-1.282 5.749-2.848 6.777-4.17 13.703-5.695 20.776-4.574 3.199.507 5.702 1.372 5.563 1.922-.14.55-3.379 1-7.198 1-8.209 0-10 1.118-8.181 5.11l1.213 2.662 2.409-2.262c2.933-2.756 5.275-2.094 6.79 1.92.607 1.608 2.142 3.397 3.412 3.975 1.97.898 2.291 1.75 2.19 5.824-.162 6.517-1.13 10.523-2.67 11.034-1.009.336-1.138-1.028-.596-6.314l.69-6.743-2.653.666c-2.402.603-2.653.399-2.653-2.162 0-1.555-.67-3.701-1.487-4.769-1.456-1.9-1.531-1.887-3.5.559l-2.013 2.5-1.977-2.5c-1.088-1.375-1.988-2.837-2-3.25-.055-1.852-3.168-.498-4.023 1.75-.996 2.622-3.798 3.302-5.713 1.387-1.967-1.967-3.547.12-2.937 3.88.73 4.504-.51 6.745-4.506 8.138l-3.199 1.115 2.644 2.76c1.84 1.92 2.471 3.423 2.075 4.937-.67 2.562 4.9 15.306 7.86 17.986 2.572 2.327 4.168 5.297 2.846 5.297-.55 0-2.502-1.319-4.339-2.931zm-161.48-5.717c-5.711-2.815-3.6-8.352 3.184-8.352 3.044 0 3.406 1.598.565 2.5-2.767.878-2.502 2.95.557 4.344 1.406.64 2.28 1.613 1.94 2.16-.854 1.383-2.46 1.215-6.247-.652zm170.238-9.365c-2.844-3.142-2.322-7.615 1.313-11.25 3.45-3.45 5.26-3.088 3.257.653-.865 1.617-1.05 4.035-.574 7.498.787 5.722-.63 6.82-3.996 3.1zm-94.546-40.802c-5.585-3.55-10.224-10.366-17.293-25.412l-5.352-11.388h-5.064c-4.606 0-9.088-1.864-7.735-3.217.302-.302 2.685-.435 5.296-.296 2.612.139 6.089-.296 7.727-.966 1.638-.67 7.67-1.36 13.404-1.531 8.815-.264 11.25-.716 15.756-2.92 2.931-1.434 5.793-3.473 6.36-4.531.996-1.863 3.958-2.721 3.958-1.146 0 .427-.724 1.811-1.61 3.075-1.4 2-1.456 3.228-.429 9.473 1.89 11.487 3.012 25.823 2.384 30.45-1.439 10.608-8.542 14.04-17.402 8.41zm57.798-11.614c-5.324-1.9-6.685-3.285-9.898-10.071-4.65-9.818-3.432-21.18 3.159-29.502 4.192-5.293 8.202-7.268 15.017-7.395 4.834-.09 6.082.316 9.657 3.144 5.514 4.362 7.545 9.668 7.52 19.642-.028 10.404-3.407 17.544-10.581 22.361-5.296 3.556-8.808 3.985-14.874 1.82zm-77.516-43.744c.51-1.534 4.76-1.823 4.806-.327.017.55-1.157 1.147-2.609 1.327-1.844.228-2.506-.073-2.197-1zm49.142-4.745c-4.598-2.804-6.367-5.903-6.367-11.157 0-8.024 6.159-14.738 14.37-15.663 8.571-.966 14.076 3.412 15.273 12.15.534 3.893.232 5.179-2.008 8.564-4.831 7.3-14.675 10.126-21.268 6.106zm8.583-16.521c1.884-2.27.914-7.009-1.505-7.355-2.978-.426-5.833 3.112-5.044 6.254.726 2.894 4.53 3.533 6.55 1.1zm185.05 90.439c3.095 0 6.203.56 6.947 1.25 1.496 1.388 1.613 1.92-1.52-6.905-1.607-4.531-1.653-5.369-.378-6.916 1.243-1.508 12.516-9.106 32.451-21.871 2.75-1.761 12.2-7.948 21-13.749 23.398-15.424 32.39-21.147 38-24.184 2.75-1.489 7.097-4.239 9.66-6.11l4.66-3.404-.472-6.306c-1.608-21.448-7.645-51.665-14.496-72.555-4.312-13.148-4.98-13.855-9.908-10.493-5.048 3.443-28.632 22.83-37.944 31.19-12.313 11.057-46.279 45.017-56.519 56.51-4.39 4.927-10.277 11.452-13.083 14.5-5.79 6.29-12.398 15.832-12.398 17.903 0 1.54 9.97 21.547 13.611 27.316 4.085 6.47 12.39 22.98 12.39 24.63 0 1.24.266 1.327 1.2.394.66-.66 3.72-1.2 6.8-1.2zm-262-76c2.25-2.25 2.375-2.865 1.013-5-1.754-2.751-6.944 2.13-5.703 5.364.834 2.174 2.263 2.064 4.69-.364z" fill="#a5a29c"/><path className="pikachu6" d="M304.034 429.842c-6.52-3.595-11.549-10.27-13.624-18.088-1.845-6.954-1.771-6.907-12.984-8.179-5.715-.649-13.992-2.302-18.392-3.674-4.4-1.373-13.088-4.104-19.307-6.071-17.895-5.66-26.69-4.716-42.25 4.528l-7.132 4.236.229 7.58c.402 13.346.17 14.813-2.872 18.218l-2.832 3.17-5.193-2.827c-5.974-3.251-8.297-6.532-11.137-15.728l-2.028-6.565-6.739-2.096c-12.67-3.941-25.98-15.695-29.909-26.41-.842-2.3-2.355-11.382-3.362-20.182-2.305-20.16-3.408-26.582-6.666-38.798-1.642-6.157-3.24-10.134-4.302-10.702-.929-.497-7.722-1.417-15.094-2.045-7.373-.627-21.506-2.523-31.406-4.213-9.9-1.69-20.25-3.17-23-3.288-7.27-.313-7.5-.358-7.5-1.454 0-1.437 6.936-1.231 15.292.453 12.146 2.45 44.977 6.547 52.453 6.547h7.065l-.554-4.133c-1.09-8.127 2.152-3.495 6.443 9.205 4.551 13.468 6.706 24.278 8.258 41.428 1.055 11.665 4.055 25.688 6.51 30.437 3.924 7.586 19.992 18.432 30.578 20.64 9.87 2.057 16.234.666 30.441-6.654 19.203-9.894 28.456-10.239 53.817-2.006 22.316 7.244 32.019 8.806 43.484 7.004 17.697-2.783 25.027-10.736 27.37-29.698 1.722-13.927.608-29.055-2.923-39.723-3.832-11.574-6.166-16.344-8.336-17.033-.958-.304-3.303-2.28-5.21-4.39-2.636-2.919-3.64-5.1-4.19-9.097-.59-4.293-2.27-7.604-9.143-18.029-7.315-11.095-9.038-13.077-13.137-15.11-5.482-2.72-9.149-8.84-9.968-16.636-.329-3.136-2.105-7.54-5.324-13.205-2.657-4.675-8.191-17.074-12.3-27.552-9.32-23.775-15.183-36.95-20.444-45.942-4.152-7.097-4.278-10.713-.245-7.064 1.525 1.381 2.859 1.64 5.773 1.12 5.124-.913 36.086-11.424 39.606-13.445 2.939-1.687 8.877-9.855 10.736-14.766.594-1.568 3.023-6.676 5.398-11.351 4.641-9.135 8.92-21.593 7.953-23.157-.706-1.143-4.013-.525-15.403 2.875-27.954 8.347-64.782 26.411-76.314 37.432-3.342 3.194-5.394 3.538-8.245 1.382-1.854-1.403-1.814-1.47.9-1.5 1.757-.02 4.368-1.34 6.843-3.457 4.47-3.827 28-16.506 46.347-24.973 8.463-3.906 17.654-7.062 31-10.644 23.547-6.32 25.597-6.72 43.47-8.485 18.271-1.805 28.416-1.88 29.792-.223 3.779 4.554-14.118 22.7-36.215 36.72-20.329 12.897-59.707 29.632-82.33 34.987-2.89.684-5.51 1.658-5.822 2.163-.313.506 1.656 5.523 4.374 11.15 2.718 5.626 6.143 13.38 7.612 17.23 1.47 3.85 3.532 9.025 4.584 11.5 1.052 2.475 3.773 9.225 6.046 15 7.915 20.107 18.102 37.281 43.729 73.723 5.649 8.033 11.664 17.04 13.367 20.017 1.703 2.977 3.801 5.683 4.662 6.013 1.973.757 14.2-5.685 14.2-7.481 0-.733-6.075-7.79-13.5-15.681-7.425-7.893-13.5-15.04-13.5-15.882 0-.842 3.488-4.127 7.75-7.3 4.263-3.172 11.73-8.91 16.593-12.75 7.817-6.174 8.782-7.284 8.318-9.571-.493-2.432-14.303-31.083-20.735-43.017-1.609-2.986-2.926-6.408-2.926-7.603 0-4.6 18.514-25.85 50.323-57.761 27.345-27.433 35.58-35.247 45.677-43.337 7.84-6.281 10-7.799 10-7.024 0 .255-6.382 6.244-14.183 13.309-16.97 15.369-52.205 50.306-63.337 62.803-4.389 4.926-10.276 11.451-13.082 14.5-5.79 6.289-12.398 15.831-12.398 17.902 0 1.54 9.97 21.547 13.611 27.316 4.085 6.47 12.39 22.98 12.39 24.63 0 1.24.266 1.327 1.2.394 1.584-1.585 12.025-1.547 13.746.05 1.496 1.388 1.613 1.92-1.52-6.905-1.607-4.531-1.653-5.369-.378-6.916 1.243-1.508 12.516-9.106 32.451-21.871 2.75-1.761 12.2-7.948 21-13.749 23.398-15.424 32.39-21.147 38-24.184 2.75-1.489 7.088-4.232 9.64-6.096l4.641-3.39-.472-6.82c-.65-9.385-6.357-44.067-8.814-53.569-.858-3.316.979-3.798 1.902-.5 3.577 12.785 9.603 48.225 9.603 56.475 0 3.483-.522 5.419-1.75 6.485-.962.837-9.4 6.286-18.75 12.11-9.35 5.825-21.725 13.958-27.5 18.074-5.775 4.116-15.45 10.501-21.5 14.19-20.58 12.543-35.5 23.335-35.5 25.676 0 .486 2.293 5.818 5.094 11.847 2.802 6.029 4.85 11.596 4.553 12.371-.723 1.884-10.047 9.17-21.397 16.719-5.087 3.384-9.25 6.685-9.25 7.337 0 .651 5.426 7.36 12.056 14.907 6.631 7.547 11.896 14.248 11.7 14.89-.422 1.383-6.583 4.464-20.148 10.076-5.44 2.251-10.368 4.849-10.95 5.772-.872 1.384.123 2.86 5.642 8.38 3.685 3.685 6.7 7.3 6.7 8.032 0 1.332-4.688 2.948-12.338 4.254l-4.063.693-1.72 13.481c-1.918 15.013-2.614 17.38-6.866 23.342l-2.952 4.139 1.97 8.95c1.083 4.922 1.97 11.993 1.97 15.714 0 5.66-.316 6.934-1.93 7.799-1.062.568-2.075 2.042-2.25 3.275-.462 3.233-2.54 3.088-9.32-.65zm8.5-1.12c0-2.162-2.787-8.576-4.595-10.573-1.522-1.682-5.405-1.5-5.405.254 0 1.96 2.928 7.779 4.913 9.763 2.45 2.45 5.087 2.738 5.087.556zm-127.733-1.068c.57-.57-.245-3.161-2.56-8.15-.575-1.237-1.644-2.25-2.376-2.25-1.956 0-1.614 4.023.658 7.75 1.933 3.17 3.06 3.868 4.278 2.65zm129.828-10.705c-1.778-1.778-2.173-.208-.853 3.393l1.25 3.412.333-2.872c.182-1.58-.146-3.35-.73-3.933zm-15.75 3.762c-.325-.849-.806-1.329-1.068-1.067-.263.263-.18.957.182 1.544.986 1.595 1.563 1.285.886-.477zm-111.055-1.457c-.288-1.1-.696-2-.906-2-.211 0-.384.9-.384 2s.408 2 .907 2c.498 0 .67-.9.383-2zM38.201 292.587c-.367-.366-.667-1.131-.667-1.7 0-.626.466-.567 1.184.15.65.651.95 1.416.666 1.7-.284.285-.816.217-1.183-.15zm174.064-2.264c-3.892-3.418-8.048-10.688-9.736-17.034-.653-2.455-2.044-5.554-3.091-6.885-2.317-2.945-2.398-4.495-.326-6.215 1.87-1.552 5.86-9.291 6.798-13.185.364-1.512 1.167-2.75 1.783-2.75.616 0 3.203-1.282 5.749-2.848 6.777-4.17 13.703-5.695 20.776-4.574 7.274 1.153 6.778 3.037-.684 2.599-5.368-.316-11.022.997-10.977 2.548.012.426.882 1.894 1.933 3.262l1.91 2.487 2.652-2.487 2.652-2.487 1.915 2.36c1.054 1.3 1.915 2.915 1.915 3.59 0 .676 1.125 1.742 2.5 2.368 2.188.997 2.485 1.735 2.382 5.91-.162 6.518-1.13 10.524-2.67 11.035-1.009.336-1.138-1.028-.596-6.314l.69-6.743-2.653.666c-2.402.603-2.653.399-2.653-2.162 0-1.555-.687-3.701-1.527-4.769-1.501-1.908-1.554-1.903-3.122.309-2.137 3.015-2.812 2.857-5.35-1.25-2.646-4.28-3.503-4.368-4.85-.5-1.047 3.002-4.316 4.159-5.65 2-.34-.55-1.326-1-2.191-1-1.27 0-1.465.808-1.01 4.195.699 5.213-.36 7.282-4.456 8.71l-3.199 1.115 2.644 2.76c1.84 1.92 2.471 3.423 2.075 4.937-.67 2.562 4.9 15.306 7.86 17.986 2.572 2.327 4.168 5.297 2.846 5.297-.55 0-2.502-1.319-4.339-2.931zm3.27-44.569c1.019-1.228.95-1.5-.378-1.5-.893 0-1.623.675-1.623 1.5s.17 1.5.378 1.5c.207 0 .938-.675 1.622-1.5zm-181.27 43.897c-.749-.748 3.365-9.397 4.469-9.397 1.464 0 .827 2.696-1.265 5.356-1.135 1.443-1.784 3.08-1.44 3.634.668 1.082-.76 1.411-1.765.407zm16.52-5.045c-5.711-2.815-3.6-8.352 3.184-8.352 1.41 0 2.565.45 2.565 1s-.364 1-.809 1c-.444 0-1.655.62-2.69 1.376-1.782 1.303-1.712 1.464 1.342 3.042 1.772.917 2.956 2.098 2.631 2.625-.83 1.344-2.465 1.162-6.224-.69zm-16.25-7.63c0-.839 1.585-2.46 3.523-3.604 3.038-1.792 3.432-2.445 2.858-4.733-.663-2.64-.643-2.651 3.78-1.988 3.52.528 5.58.166 9.892-1.736 7.034-3.104 29.27-10.271 34.467-11.11 2.211-.357 4.686-1.086 5.5-1.62 1.67-1.096 1.815-.945-8.823-9.15-11.572-8.923-20.174-22.697-22.33-35.754-1.055-6.386-.975-8.204.646-14.714 1.017-4.085 2.473-8.19 3.236-9.12 1.486-1.815 1.505-2-.772 7.583-.695 2.923-.485 3.427 1.946 4.684 7.418 3.836 16.8 25.628 15.796 36.691-.484 5.337-.335 5.829 2.634 8.687 1.73 1.666 5.825 4.529 9.1 6.362 3.565 1.996 6.723 4.65 7.87 6.614 2.352 4.028 1.476 5.286-1.642 2.357-1.27-1.194-3.407-2.17-4.746-2.17-6.087.005-37.82 9.997-43.624 13.738-1.288.83-3.962 1.276-6.5 1.085-3.431-.258-4.236-.018-3.942 1.176.897 3.644.509 4.396-2.614 5.057-1.784.379-3.921 1.25-4.75 1.938-1.229 1.02-1.506.97-1.506-.274zm186.488-1.735c-2.844-3.142-2.322-7.615 1.313-11.25 3.45-3.45 5.26-3.088 3.257.653-.865 1.617-1.05 4.035-.574 7.498.787 5.722-.63 6.82-3.996 3.1zm-94.546-40.802c-5.585-3.55-10.224-10.366-17.293-25.412l-5.352-11.388h-5.064c-4.606 0-9.088-1.864-7.735-3.217.302-.302 2.685-.435 5.296-.296 2.612.139 6.089-.296 7.727-.966 1.638-.67 7.67-1.36 13.404-1.531 8.815-.264 11.25-.716 15.756-2.92 2.931-1.434 5.793-3.473 6.36-4.531.996-1.863 3.958-2.721 3.958-1.146 0 .427-.724 1.811-1.61 3.075-1.4 2-1.456 3.228-.429 9.473 1.89 11.487 3.012 25.823 2.384 30.45-1.439 10.608-8.542 14.04-17.402 8.41zm12.019-2.639c.664-.8 1.281-3.61 1.372-6.244l.166-4.79-3.495.345c-6.72.664-12.252 4.928-10.349 7.977 2.382 3.815 9.998 5.494 12.306 2.712zm45.779-8.975c-5.324-1.9-6.685-3.285-9.898-10.071-4.65-9.818-3.432-21.18 3.159-29.502 4.192-5.293 8.202-7.268 15.017-7.395 4.834-.09 6.082.316 9.657 3.144 5.514 4.362 7.545 9.668 7.52 19.642-.028 10.404-3.407 17.544-10.581 22.361-5.296 3.556-8.808 3.985-14.874 1.82zM75.85 191.238c-3.285-1.31-4.633-4.652-3.934-9.754.534-3.895.42-4.31-.884-3.228-2.376 1.971-1.859-.343 1.61-7.215 2.033-4.028 5.88-8.895 11.13-14.082l8.023-7.927-1.118-11.639c-.894-9.31-.843-13.34.255-20.139l1.373-8.5.122 11.5c.067 6.325.408 14.538.759 18.25.536 5.679.932 6.75 2.493 6.75 2.806 0 2.232 1.725-1.395 4.194-3.938 2.68-16.75 16.268-16.75 17.764 0 .589 1.788-.113 3.973-1.559 7.398-4.896 12.485-.246 10.099 9.232-2.965 11.772-9.703 18.766-15.756 16.353zm12.105-18.1c3.627-2.854 3.3-7.243-.574-7.691-4.27-.494-7.593 5.661-4.647 8.607 1.621 1.621 2.102 1.537 5.22-.916zm18.804 5.943c.51-1.534 4.76-1.823 4.806-.327.017.55-1.157 1.147-2.609 1.327-1.844.228-2.506-.073-2.197-1zm49.142-4.745c-4.598-2.804-6.367-5.903-6.367-11.157 0-8.024 6.159-14.738 14.37-15.663 8.571-.966 14.076 3.412 15.273 12.15.534 3.893.232 5.179-2.008 8.564-4.831 7.3-14.675 10.126-21.268 6.106zm8.805-15.737c4.036-3.653.495-11.843-4.066-9.402-3.765 2.015-5.355 7.408-2.906 9.857 1.694 1.693 4.823 1.49 6.972-.455zm-51.172-22.857c0-.282 2.47-2.092 5.487-4.022 3.257-2.084 5.68-4.416 5.964-5.738 3.88-18.095 6.991-57.719 4.644-59.17-2.697-1.666-19.18 11.062-29.296 22.623-4.37 4.995-5.939 7.66-6.717 11.417-1.005 4.852-1.01 4.836-.5-1.598C94.41 82.97 104.1 58.202 115.338 42.462c3.845-5.386 7.735-10.41 8.644-11.164 2.953-2.45 4.526.775 6.61 13.549 3.53 21.636 2.353 55.45-2.595 74.551-.804 3.105-1.462 6.645-1.462 7.867 0 1.917.378 2.132 2.75 1.564 1.513-.362 4.954-.928 7.647-1.258 7.382-.904 4.926 1.212-3.134 2.7-3.72.687-9.629 2.314-13.132 3.616-6.882 2.558-7.13 2.622-7.13 1.855zm75-2.113c-6.321-2.006-19.658-4.222-32-5.317-10.271-.911-10.162-.923 5-.548 15.966.395 23.949 1.821 30.969 5.534 4.151 2.195 2.375 2.343-3.969.33zm257.018-48.823c-2.062-6.187-3.877-9.941-5.132-10.613-2.114-1.131-1.668-2.939.724-2.939.82 0 2.204 1.688 3.074 3.75 1.781 4.223 5.438 18.461 4.884 19.016-.198.198-1.796-3.948-3.55-9.214zm-24.018 1.067c0-.248 1.913-1.926 4.25-3.73 3.925-3.027 4.059-3.065 1.75-.492-2.37 2.641-6 5.196-6 4.222z" fill="#a7925e"/><path className="pikachu7" d="M303.58 429.32c-5.363-3.126-7.01-4.762-9.74-9.664-1.805-3.246-3.572-7.477-3.925-9.402-.353-1.925-1.058-4.026-1.567-4.67-.51-.643-4.388-1.472-8.62-1.84-9.447-.824-16.703-2.523-29.694-6.953-5.5-1.875-12.7-4.2-16-5.164-3.954-1.156-5.273-1.878-3.869-2.117 1.172-.2 8.26 1.684 15.75 4.186 20.518 6.855 31.224 8.924 41.87 8.092 7.198-.563 8.75-.433 8.75.73 0 .778-1.1 1.916-2.444 2.528-2.101.958-2.327 1.506-1.607 3.91 2.136 7.141 5.956 15.298 7.164 15.298 1.375 0 .985-3.285-.646-5.441-2.117-2.8-1.94-6.796.282-6.37 1.2.231 1.919 1.593 2.286 4.324.833 6.206 4.882 12.637 8.773 13.934 1.82.606 2.982 1.429 2.583 1.828-1.202 1.202-2.603.72-9.346-3.21zm-123.046-.02c-5.87-3.13-9.002-7.295-11.406-15.168l-2.242-7.34-5.926-2.075c-10.78-3.775-19.577-9.455-22.885-14.778-1.962-3.157-1.962-3.172-.01-1.737 1.083.796 3.32 2.685 4.97 4.198 5.001 4.585 15.643 9.529 23.283 10.818 6.382 1.076 7.855.984 14.9-.937 4.299-1.172 10.853-3.927 14.565-6.123 3.712-2.195 8.554-4.629 10.76-5.407 4.637-1.636 20.681-3.086 17.491-1.581-1.1.519-3.602.975-5.56 1.014-4.592.09-14.198 3.872-21.882 8.615l-6.058 3.74v9.557c0 11.347-1.75 11.518-2.694.263-.48-5.732-.9-7.09-2.055-6.648-.798.307-4.593 1.076-8.432 1.71l-6.981 1.153.672 3.59c1.012 5.402 2.423 7.317 2.46 3.34.02-2.097.525-3.25 1.423-3.25 1.718 0 2.607 2.167 2.607 6.35 0 3.614 4.318 10.65 6.536 10.65 2.01 0 1.835-3.003-.535-9.24-2.351-6.185-2.53-8.76-.608-8.76 1.673 0 2.607 2.15 2.607 6s.935 6 2.607 6c2.18 0 1.603 3.269-1.015 5.75-2.796 2.65-2.223 2.625-6.592.296zm129.426-9.634c-2.797-5.814-3.374-7.86-2.47-8.75 1.634-1.61 3.612 1.232 4.434 6.373.351 2.196 1.532 4.887 2.624 5.98 2.347 2.346 2.562 3.985.524 3.985-.834 0-3.03-3.26-5.112-7.588zm5.86-3.443c-.588-1.392-1.63-6.005-2.315-10.25-1.277-7.917-2.013-8.758-5.412-6.187-2.037 1.54-5.586 2.002-5.52.718.037-.75 10.373-8.25 11.37-8.25.29 0 .28.65-.025 1.443-.305.794.424 5.677 1.62 10.852 1.196 5.174 1.99 10.488 1.764 11.807l-.41 2.398-1.071-2.531zm.21-27.719c4.694-11.575 4.81-12.326 4.86-31.25.044-17.588-.087-18.885-2.66-26.3-3.893-11.215-6.725-16.258-10.604-18.889-4.833-3.277-6.928-6.538-8.05-12.531-.686-3.66-2.874-8.144-7.319-15-3.487-5.38-7.13-11.046-8.096-12.593-.966-1.547-3.691-3.643-6.057-4.657-6.714-2.878-11.19-11.086-10.377-19.03l.358-3.5 1.975 3.314c1.086 1.823 3.324 5.301 4.974 7.73 1.65 2.429 4.8 7.143 7 10.477 7.871 11.927 14.1 21.032 20.401 29.822 3.52 4.911 7.582 11.076 9.026 13.7 3.991 7.253 4.983 7.536 12.587 3.598 3.567-1.848 6.486-4.012 6.486-4.81 0-1.426-2.312-4.048-18.718-21.226-4.52-4.733-8.232-9.289-8.25-10.125-.017-.836 2.106-3.176 4.718-5.2 2.613-2.024 9.861-7.617 16.108-12.428 6.246-4.811 11.607-9.4 11.913-10.197.668-1.741.386-2.45-8.801-22.155-3.975-8.525-8.017-16.4-8.982-17.5-2.36-2.69-4.597-7.304-5.44-11.215-.811-3.771 1.454-7.454 11.627-18.904l11.325-12.744c2.75-3.094 5.393-5.628 5.872-5.631.875-.006-5.987 8.213-16.336 19.568-3.045 3.34-6.844 8.543-8.444 11.56l-2.908 5.489 7.345 13.938c13.706 26.008 18.856 36.822 18.143 38.097-.982 1.755-12.87 11.596-23.922 19.803-5.087 3.778-9.25 7.364-9.25 7.969 0 .605 5.61 6.696 12.466 13.536 11.629 11.6 15.652 14.36 12.586 8.631-2.228-4.164-.773-4.838 3.563-1.649 6.71 4.935 7.544 1.128 1.385-6.325-2.2-2.662-4-5.232-4-5.71 0-.724 5.728-4.85 23.388-16.848 1.162-.789 3.538-2.754 5.28-4.366l3.167-2.932-3.491-8.133c-6.431-14.98-6.61-15.679-4.605-17.92 1.65-1.845 16.963-12.487 20.261-14.082 1.607-.776-.52.97-10.807 8.868-3.581 2.75-6.945 5.7-7.475 6.557-.708 1.143.415 4.526 4.217 12.707 4.26 9.169 4.99 11.51 4.1 13.171-1.142 2.135-10.821 9.582-22.832 17.569-3.962 2.634-7.203 5.391-7.203 6.126 0 .735 5.063 7.016 11.25 13.957 6.188 6.94 11.637 13.295 12.109 14.122 1.5 2.624 1.177 2.802-26.12 14.381-6.5 2.757-6.37 4.075 1.142 11.625 3.64 3.658 6.62 7.226 6.62 7.93 0 1.287-4.781 2.91-12.389 4.208l-4.112.7-.713 5.974c-1.951 16.352-3.653 24.477-5.741 27.41-2.411 3.385-3.649 4.022-2.55 1.313zm-183.698-5.469c-2.196-3.4-4.802-11.715-4.767-15.21.04-4.109 1.321-1.771 2.975 5.429.694 3.025 1.91 6.78 2.702 8.343 1.774 3.504 1.106 4.56-.91 1.438zm-8.327-45.127c-.373-2.49-.473-5.12-.222-5.841.252-.722.795 1.078 1.207 4.001.412 2.923.512 5.552.222 5.842-.29.29-.833-1.51-1.207-4.002zm-3.447-17.505c-1.348-5.143-2.967-10.057-3.599-10.92-.68-.931-4.157-2.068-8.536-2.792l-7.389-1.221 6.687-.108 6.688-.108-.568-3.75c-.437-2.89-.292-3.493.633-2.63 1.62 1.511 9.216 26.326 8.836 28.863-.166 1.11-1.405-2.19-2.752-7.334zM80.599 304.12c-2.99-.496-5.69-1.177-6-1.514-.754-.816 12.85.507 16.532 1.609 2.765.827 2.713.867-1.097.837-2.2-.017-6.446-.436-9.435-.932zm-40.494-5.751c-.649-1.05 3.359-2.275 4.71-1.44 1.03.636-1.091 2.287-2.972 2.31-.655.009-1.437-.383-1.738-.87zm170.716-10.364c-2.644-2.887-5.71-9.027-7.365-14.75-.715-2.475-2.115-5.573-3.111-6.885-2.217-2.92-2.283-4.478-.264-6.154 1.39-1.154 5.236-8.634 6.804-13.235.333-.976 1.402-2.1 2.377-2.5.975-.4 3.928-2.017 6.562-3.594 3.735-2.237 6.267-2.94 11.5-3.193 3.69-.178 5.585-.1 4.21.174-5.646 1.125-9 2.627-9 4.03 0 1.852 1.94 5.624 3.371 6.553.59.382.737 1.03.327 1.44-.633.633-1.665-.408-4.712-4.757-.283-.403-2.292-.879-4.464-1.056-3.118-.255-4.027.046-4.31 1.427-.25 1.22.27 1.75 1.715 1.75 1.14 0 2.073.423 2.073.941 0 1.825-1.97 2.125-4.231.643-3.354-2.198-4.659-.762-4.45 4.9.177 4.826.084 4.996-3.692 6.8l-3.874 1.848 2.59 2.704c1.79 1.868 2.415 3.375 2.023 4.874-.648 2.477 3.384 11.962 7.225 16.998 2.832 3.713 1.858 4.492-1.304 1.042zm-161.62-5.417c-1.633-1.633-.476-4.204 2.333-5.183 2.973-1.036 4.385.105 1.5 1.212-.825.316-1.5 1.49-1.5 2.607 0 2.02-1.059 2.639-2.333 1.364zm-14.667-6.099c0-1.408 7.91-6.19 8.543-5.165.85 1.375-.414 2.931-2.38 2.931-.944 0-2.718.7-3.94 1.557-1.223.856-2.223 1.16-2.223.677zm186.557-2.456c-1.97-2.813-1.981-5.18-.033-6.798 1.95-1.618 2.083-1.423 2.91 4.27.758 5.225-.323 6.174-2.877 2.528zm-180.068-5.796c-.915-1.48-.047-2.237 2.089-1.82 1.562.305 1.579.467.167 1.637-1.125.932-1.761.983-2.256.183zm7.011-.042c-1.758-.703-1.675-.808.691-.87 1.48-.038 2.94-.474 3.246-.967.715-1.158 15.453-6.547 16.11-5.89.274.274-1.65 1.304-4.274 2.288-2.625.985-6.798 2.79-9.273 4.014-3.044 1.504-5.147 1.965-6.5 1.425zm22.5-8.94c.825-.533 2.175-.945 3-.914.99.036.819.347-.5.914-2.749 1.181-4.328 1.181-2.5 0zm167.817-1.75c-.222-1.928-.96-2.842-2.473-3.057-1.378-.197-2.398-1.278-2.828-3-.37-1.481-1.34-3.436-2.159-4.344-1.038-1.152-1.153-1.857-.378-2.336 1.488-.92 3.69 1.03 4.412 3.909.323 1.286 1.492 2.576 2.598 2.865 1.602.419 2.011 1.36 2.011 4.62 0 4.656-.71 5.462-1.183 1.343zm-162.587.187c.778-.778 11.09-3.45 11.548-2.993.361.362-9.833 3.556-11.348 3.556-.42 0-.51-.253-.2-.563zm25.79-2.913c-.695-.838-2.335-1.524-3.642-1.524-1.67 0-2.378-.566-2.378-1.901 0-1.053-1.45-2.828-3.25-3.977-8.224-5.252-10.772-7.324-15.122-12.295-7.396-8.451-12.289-18.824-13.608-28.85-.938-7.126-.872-9.115.416-12.477.97-2.533 1.445-3.117 1.298-1.593-.171 1.76.563 2.852 2.73 4.062 3.57 1.992 11.103 14.04 13.338 21.332.876 2.86 1.66 8.706 1.741 12.992.14 7.417.311 7.96 3.54 11.292 1.866 1.925 5.735 4.647 8.599 6.048 2.863 1.4 5.942 3.67 6.842 5.044 1.835 2.8 1.453 4.204-.504 1.847zm161.643-16.274c-3.849-6.11-5.05-8.775-13.648-30.25-4.514-11.275-11.426-27.025-15.36-35-3.935-7.975-7.308-14.846-7.495-15.27-.186-.423.826-.238 2.25.411 1.755.8 2.59 1.966 2.59 3.615 0 1.34.841 3.63 1.869 5.09 2.987 4.244 11.875 25.326 22.736 53.935 1.312 3.455 4.197 9.642 6.412 13.75 4.254 7.89 4.628 10.04.646 3.719zm-134.755-3.573c-6.032-3.178-10.92-9.886-18.162-24.927l-6.139-12.75-4.053-.015c-2.23-.009-4.729-.452-5.554-.985-1.14-.737-.728-.973 1.715-.985 1.769-.008 5.144-.652 7.5-1.43 2.357-.78 9.235-1.572 15.285-1.76 11.564-.363 15.555-1.747 20.577-7.138 1.046-1.123 2.204-1.74 2.573-1.37.37.369-.15 1.579-1.154 2.688-1.77 1.955-1.759 2.364.355 13.256 3.417 17.604 2.562 30.311-2.41 35.805-2.305 2.546-5.164 2.44-10.533-.389zm10.63-4.095c1-1.527 1.47-4.016 1.274-6.75-.3-4.162-.43-4.32-3.312-4.008-3.945.426-9.59 3.23-10.926 5.426-3.316 5.456 9.445 10.704 12.965 5.332zm43.859-9.011c-5.77-2.512-10.397-11.75-10.397-20.759 0-7.512 2.54-13.944 7.384-18.698 3.506-3.44 5.303-4.363 10.321-5.296 5.454-1.014 6.42-.93 9.432.83 9.675 5.65 12.484 20.947 6.25 34.035-4.479 9.404-14.349 13.65-22.99 9.888zm196.83-2.145c.949-.994 2-1.533 2.335-1.197.335.335-.441 1.148-1.726 1.807-2.233 1.145-2.26 1.118-.61-.61zm6.273-3.894c1.65-1.45 4.317-3.341 5.927-4.202 1.61-.86 5.21-3.163 8-5.116 2.79-1.954 6.198-4.292 7.573-5.195 1.375-.904 5.348-3.568 8.828-5.92 3.48-2.353 6.552-4.052 6.827-3.778.275.275-2.348 2.419-5.828 4.764-3.48 2.346-8.127 5.688-10.327 7.429-3.638 2.877-11.306 7.635-20.5 12.72l-3.5 1.935zM74.757 189.697c-4.685-3.28-1.757-16.291 4.932-21.92 3.991-3.358 5.132-3.187 3.049.458-1.282 2.242-1.438 3.404-.632 4.69 1.669 2.663 2.93 2.62 6.302-.218 2.827-2.379 3.126-2.448 3.126-.72 0 4.09-3.42 11.624-6.969 15.355-4.022 4.229-6.34 4.785-9.808 2.355zm33.777-10.443c0-.55.45-1 1-1s1 .45 1 1-.45 1-1 1-1-.45-1-1zm50-4.083c-9.346-3.857-11.564-13.788-4.8-21.491 3.715-4.231 4.986-4.377 3.485-.4-1.375 3.64-.1 6.308 3.25 6.804 4.758.705 8.244-6.777 4.576-9.82-3.947-3.277 3.254-3.705 8.166-.486 5.737 3.76 7.25 13.262 2.998 18.836-4.15 5.442-12.696 8.612-17.675 6.557zm-84.034-6.85c1.811-3.55 4.034-6.087 4.034-4.605 0 .76-5.15 8.538-5.653 8.538-.213 0 .515-1.77 1.619-3.932zm386.034-7.487c0-3.532-1.166-13.094-2.593-21.25-3.535-20.22-5.318-31.752-4.965-32.105.48-.48 4.457 17.692 5.53 25.275.546 3.85 1.674 10.825 2.509 15.5 1.735 9.725 1.989 19 .52 19-.564 0-1-2.807-1-6.42zm-378.102-2.316c3.338-4.353 4.926-5.774 5.648-5.052.227.227-1.682 2.41-4.242 4.85l-4.655 4.438zm159.602-1.264c.34-.55 1.38-.993 2.31-.985 1.457.014 1.483.15.19.985-1.958 1.266-3.282 1.266-2.5 0zm111.707-9c8.402-9.524 31.815-32.312 32.497-31.63.385.385-34.795 35.699-38.484 38.63-.346.275 2.349-2.875 5.987-7zm-102.207 5.582c0-.708 13.095-4.82 13.633-4.282.278.277-2.018 1.449-5.101 2.602-5.295 1.981-8.532 2.618-8.532 1.68zm-160-6.023c0-.792.36-1.663.798-1.934 1.28-.79 3.525 1.043 2.771 2.263-.992 1.606-3.569 1.368-3.569-.329zm181.506-2.127c5.566-3.778 6.783-5.558 14.315-20.948 7.936-16.212 11.637-26.523 10.767-29.99-.534-2.129-.164-2.525 3.153-3.371 15.253-3.893 52.841-6.537 55.052-3.873 3.746 4.515-14.115 22.7-35.821 36.469-14.855 9.424-45.532 24.281-50.134 24.281-.614 0 .586-1.156 2.668-2.568zm-181.906-4.539c-.986-3.076-1.473-15.637-.751-19.393.61-3.176.889-1.527 1.352 8 .554 11.421.393 14.49-.6 11.393zm110.9-6.418c4.876-4.089 10.712-8.055 15.21-10.338 6.317-3.206 6.43-2.582.277 1.522-3.018 2.012-7.574 5.387-10.126 7.5-2.55 2.112-5.476 3.839-6.5 3.836-1.514-.004-1.303-.473 1.14-2.52zm-78.76-4.565c1.735-1.808 2.507-2.064 3.432-1.138 1.485 1.485 1.1 1.884-2.674 2.768l-2.998.703zm63.073 1.407c.722-.289 1.584-.253 1.916.079.333.332-.258.568-1.312.525-1.165-.048-1.402-.285-.604-.604zm-54.813-2.817c1.375-.786 3.85-1.408 5.5-1.383l3 .045-3 1.374c-1.65.756-4.125 1.378-5.5 1.384l-2.5.01zm40.185.477c-2.924-.426-5.572-1.031-5.886-1.345-.726-.726 9.233.317 13.201 1.382 2.67.717 2.725.802.5.771-1.375-.019-4.892-.383-7.815-.808zm61.815-13.032c3.351-2.29 11.232-6.046 11.7-5.578.277.276-2.23 1.882-5.57 3.568-5.956 3.006-9.095 4.035-6.13 2.01zm-105.56-2.945c1.657-12.084 2.72-25.01 2.878-35 .173-10.932.08-11.515-1.885-11.796-3.399-.486-14.253 7.54-25.183 18.62-5.637 5.716-10.25 9.812-10.25 9.102 0-3.634 4.891-18.834 9.55-29.677 3.489-8.121 7.619-15.55 12.253-22.041 8.572-12.007 9.738-13.096 11.805-11.03 2.75 2.75 5.392 23.596 5.392 42.538 0 16.883-2.095 38.023-4.089 41.245-.674 1.09-.812.517-.472-1.961zm262.56-.198c0-1.742 25.542-24.594 26.461-23.674.206.205-2.627 2.943-6.294 6.084a708.434 708.434 0 0 0-13.417 11.86c-3.712 3.383-6.75 5.961-6.75 5.73zm-134.45-7.73c1.36-1.33 10.327-4.712 14.45-5.45 1.975-.355-.204.882-5 2.836-8.835 3.602-11.102 4.228-9.45 2.614zm19.263-6.755c.722-.289 1.584-.253 1.916.079.333.332-.258.568-1.312.525-1.165-.048-1.402-.285-.604-.604zm8.187-2.317c.825-.533 1.95-.97 2.5-.97s.325.437-.5.97c-.825.533-1.95.97-2.5.97s-.325-.437.5-.97zm161.958-12.626c-1.236-3.715-3.26-7.767-4.497-9.004-2.295-2.295-2.213-3.37.257-3.37.761 0 2.097 1.688 2.967 3.75 1.695 4.015 4.377 14.522 3.843 15.056-.177.177-1.334-2.718-2.57-6.432z" fill="#d16853"/><path className="pikachu8" d="M303.58 429.32c-5.363-3.126-7.01-4.762-9.74-9.664-1.805-3.246-3.572-7.477-3.925-9.402-.353-1.925-1.058-4.026-1.567-4.67-.51-.643-4.388-1.472-8.62-1.84-9.447-.824-16.703-2.523-29.694-6.953-5.5-1.875-12.7-4.2-16-5.164-3.954-1.156-5.273-1.878-3.869-2.117 1.172-.2 8.26 1.684 15.75 4.186 20.518 6.855 31.224 8.924 41.87 8.092 7.198-.563 8.75-.433 8.75.73 0 .778-1.1 1.916-2.444 2.528-2.101.958-2.327 1.506-1.607 3.91 2.136 7.141 5.956 15.298 7.164 15.298 1.375 0 .985-3.285-.646-5.441-2.117-2.8-1.94-6.796.282-6.37 1.2.231 1.919 1.593 2.286 4.324.833 6.206 4.882 12.637 8.773 13.934 1.82.606 2.982 1.429 2.583 1.828-1.202 1.202-2.603.72-9.346-3.21zm-123.046-.02c-5.87-3.13-9.002-7.295-11.406-15.168l-2.242-7.34-5.926-2.075c-10.78-3.775-19.577-9.455-22.885-14.778-1.962-3.157-1.962-3.172-.01-1.737 1.083.796 3.32 2.685 4.97 4.198 5.001 4.585 15.643 9.529 23.283 10.818 6.382 1.076 7.855.984 14.9-.937 4.299-1.172 10.853-3.927 14.565-6.123 3.712-2.195 8.554-4.629 10.76-5.407 4.637-1.636 20.681-3.086 17.491-1.581-1.1.519-3.602.975-5.56 1.014-4.592.09-14.198 3.872-21.882 8.615l-6.058 3.74v9.557c0 11.347-1.75 11.518-2.694.263-.48-5.732-.9-7.09-2.055-6.648-.798.307-4.593 1.076-8.432 1.71l-6.981 1.153.672 3.59c1.012 5.402 2.423 7.317 2.46 3.34.02-2.097.525-3.25 1.423-3.25 1.718 0 2.607 2.167 2.607 6.35 0 3.614 4.318 10.65 6.536 10.65 2.01 0 1.835-3.003-.535-9.24-2.351-6.185-2.53-8.76-.608-8.76 1.673 0 2.607 2.15 2.607 6s.935 6 2.607 6c2.18 0 1.603 3.269-1.015 5.75-2.796 2.65-2.223 2.625-6.592.296zm129.426-9.634c-2.797-5.814-3.374-7.86-2.47-8.75 1.634-1.61 3.612 1.232 4.434 6.373.351 2.196 1.532 4.887 2.624 5.98 2.347 2.346 2.562 3.985.524 3.985-.834 0-3.03-3.26-5.112-7.588zm5.86-3.443c-.588-1.392-1.63-6.005-2.315-10.25-1.277-7.917-2.013-8.758-5.412-6.187-2.037 1.54-5.586 2.002-5.52.718.037-.75 10.373-8.25 11.37-8.25.29 0 .28.65-.025 1.443-.305.794.424 5.677 1.62 10.852 1.196 5.174 1.99 10.488 1.764 11.807l-.41 2.398-1.071-2.531zm.21-27.719c4.694-11.575 4.81-12.326 4.86-31.25.044-17.588-.087-18.885-2.66-26.3-3.893-11.215-6.725-16.258-10.604-18.889-4.833-3.277-6.928-6.538-8.05-12.531-.686-3.66-2.874-8.144-7.319-15-3.487-5.38-7.13-11.046-8.096-12.593-.966-1.547-3.691-3.643-6.057-4.657-6.714-2.878-11.19-11.086-10.377-19.03l.358-3.5 1.975 3.314c1.086 1.823 3.324 5.301 4.974 7.73 1.65 2.429 4.8 7.143 7 10.477 7.871 11.927 14.1 21.032 20.401 29.822 3.52 4.911 7.582 11.076 9.026 13.7 3.991 7.253 4.983 7.536 12.587 3.598 3.567-1.848 6.486-4.012 6.486-4.81 0-1.426-2.312-4.048-18.718-21.226-4.52-4.733-8.232-9.289-8.25-10.125-.017-.836 2.106-3.176 4.718-5.2 2.613-2.024 9.861-7.617 16.108-12.428 6.246-4.811 11.607-9.4 11.913-10.197.668-1.741.386-2.45-8.801-22.155-3.975-8.525-8.017-16.4-8.982-17.5-2.36-2.69-4.597-7.304-5.44-11.215-.811-3.771 1.454-7.454 11.627-18.904l11.325-12.744c2.75-3.094 5.393-5.628 5.872-5.631.875-.006-5.987 8.213-16.336 19.568-3.045 3.34-6.844 8.543-8.444 11.56l-2.908 5.489 7.345 13.938c13.706 26.008 18.856 36.822 18.143 38.097-.982 1.755-12.87 11.596-23.922 19.803-5.087 3.778-9.25 7.364-9.25 7.969 0 .605 5.61 6.696 12.466 13.536 11.629 11.6 15.652 14.36 12.586 8.631-2.228-4.164-.773-4.838 3.563-1.649 6.71 4.935 7.544 1.128 1.385-6.325-2.2-2.662-4-5.232-4-5.71 0-.724 5.728-4.85 23.388-16.848 1.162-.789 3.538-2.754 5.28-4.366l3.167-2.932-3.491-8.133c-6.431-14.98-6.61-15.679-4.605-17.92 1.65-1.845 16.963-12.487 20.261-14.082 1.607-.776-.52.97-10.807 8.868-3.581 2.75-6.945 5.7-7.475 6.557-.708 1.143.415 4.526 4.217 12.707 4.26 9.169 4.99 11.51 4.1 13.171-1.142 2.135-10.821 9.582-22.832 17.569-3.962 2.634-7.203 5.391-7.203 6.126 0 .735 5.063 7.016 11.25 13.957 6.188 6.94 11.637 13.295 12.109 14.122 1.5 2.624 1.177 2.802-26.12 14.381-6.5 2.757-6.37 4.075 1.142 11.625 3.64 3.658 6.62 7.226 6.62 7.93 0 1.287-4.781 2.91-12.389 4.208l-4.112.7-.713 5.974c-1.951 16.352-3.653 24.477-5.741 27.41-2.411 3.385-3.649 4.022-2.55 1.313zm-183.698-5.469c-2.196-3.4-4.802-11.715-4.767-15.21.04-4.109 1.321-1.771 2.975 5.429.694 3.025 1.91 6.78 2.702 8.343 1.774 3.504 1.106 4.56-.91 1.438zm-8.327-45.127c-.373-2.49-.473-5.12-.222-5.841.252-.722.795 1.078 1.207 4.001.412 2.923.512 5.552.222 5.842-.29.29-.833-1.51-1.207-4.002zm-3.447-17.505c-1.348-5.143-2.967-10.057-3.599-10.92-.68-.931-4.157-2.068-8.536-2.792l-7.389-1.221 6.687-.108 6.688-.108-.568-3.75c-.437-2.89-.292-3.493.633-2.63 1.62 1.511 9.216 26.326 8.836 28.863-.166 1.11-1.405-2.19-2.752-7.334zM80.599 304.12c-2.99-.496-5.69-1.177-6-1.514-.754-.816 12.85.507 16.532 1.609 2.765.827 2.713.867-1.097.837-2.2-.017-6.446-.436-9.435-.932zm-40.494-5.751c-.649-1.05 3.359-2.275 4.71-1.44 1.03.636-1.091 2.287-2.972 2.31-.655.009-1.437-.383-1.738-.87zm170.716-10.364c-2.644-2.887-5.71-9.027-7.365-14.75-.715-2.475-2.115-5.573-3.111-6.885-2.217-2.92-2.283-4.478-.264-6.154 1.39-1.154 5.236-8.634 6.804-13.235.333-.976 1.402-2.1 2.377-2.5.975-.4 3.928-2.017 6.562-3.594 3.735-2.237 6.267-2.94 11.5-3.193 3.69-.178 5.585-.1 4.21.174-5.646 1.125-9 2.627-9 4.03 0 1.852 1.94 5.624 3.371 6.553.59.382.737 1.03.327 1.44-.633.633-1.665-.408-4.712-4.757-.283-.403-2.292-.879-4.464-1.056-3.118-.255-4.027.046-4.31 1.427-.25 1.22.27 1.75 1.715 1.75 1.14 0 2.073.423 2.073.941 0 1.825-1.97 2.125-4.231.643-3.354-2.198-4.659-.762-4.45 4.9.177 4.826.084 4.996-3.692 6.8l-3.874 1.848 2.59 2.704c1.79 1.868 2.415 3.375 2.023 4.874-.648 2.477 3.384 11.962 7.225 16.998 2.832 3.713 1.858 4.492-1.304 1.042zm-161.62-5.417c-1.633-1.633-.476-4.204 2.333-5.183 2.973-1.036 4.385.105 1.5 1.212-.825.316-1.5 1.49-1.5 2.607 0 2.02-1.059 2.639-2.333 1.364zm-14.667-6.099c0-1.408 7.91-6.19 8.543-5.165.85 1.375-.414 2.931-2.38 2.931-.944 0-2.718.7-3.94 1.557-1.223.856-2.223 1.16-2.223.677zm186.557-2.456c-1.97-2.813-1.981-5.18-.033-6.798 1.95-1.618 2.083-1.423 2.91 4.27.758 5.225-.323 6.174-2.877 2.528zm-180.068-5.796c-.915-1.48-.047-2.237 2.089-1.82 1.562.305 1.579.467.167 1.637-1.125.932-1.761.983-2.256.183zm7.011-.042c-1.758-.703-1.675-.808.691-.87 1.48-.038 2.94-.474 3.246-.967.715-1.158 15.453-6.547 16.11-5.89.274.274-1.65 1.304-4.274 2.288-2.625.985-6.798 2.79-9.273 4.014-3.044 1.504-5.147 1.965-6.5 1.425zm22.5-8.94c.825-.533 2.175-.945 3-.914.99.036.819.347-.5.914-2.749 1.181-4.328 1.181-2.5 0zm167.817-1.75c-.222-1.928-.96-2.842-2.473-3.057-1.378-.197-2.398-1.278-2.828-3-.37-1.481-1.34-3.436-2.159-4.344-1.038-1.152-1.153-1.857-.378-2.336 1.488-.92 3.69 1.03 4.412 3.909.323 1.286 1.492 2.576 2.598 2.865 1.602.419 2.011 1.36 2.011 4.62 0 4.656-.71 5.462-1.183 1.343zm-162.587.187c.778-.778 11.09-3.45 11.548-2.993.361.362-9.833 3.556-11.348 3.556-.42 0-.51-.253-.2-.563zm25.79-2.913c-.695-.838-2.335-1.524-3.642-1.524-1.67 0-2.378-.566-2.378-1.901 0-1.053-1.45-2.828-3.25-3.977-8.224-5.252-10.772-7.324-15.122-12.295-7.396-8.451-12.289-18.824-13.608-28.85-.938-7.126-.872-9.115.416-12.477.97-2.533 1.445-3.117 1.298-1.593-.171 1.76.563 2.852 2.73 4.062 3.57 1.992 11.103 14.04 13.338 21.332.876 2.86 1.66 8.706 1.741 12.992.14 7.417.311 7.96 3.54 11.292 1.866 1.925 5.735 4.647 8.599 6.048 2.863 1.4 5.942 3.67 6.842 5.044 1.835 2.8 1.453 4.204-.504 1.847zm-21.02-25.524c0-5.413-5.202-21.24-8.585-26.123-4.069-5.871-5.96-4.898-5.738 2.952.13 4.575.965 7.933 3.103 12.466 2.829 6.001 8.936 14.548 10.47 14.653.413.029.75-1.748.75-3.948zm182.663 9.25c-3.849-6.11-5.05-8.775-13.648-30.25-4.514-11.275-11.426-27.025-15.36-35-3.935-7.975-7.308-14.846-7.495-15.27-.186-.423.826-.238 2.25.411 1.755.8 2.59 1.966 2.59 3.615 0 1.34.841 3.63 1.869 5.09 2.987 4.244 11.875 25.326 22.736 53.935 1.312 3.455 4.197 9.642 6.412 13.75 4.254 7.89 4.628 10.04.646 3.719zm-134.755-3.573c-6.032-3.178-10.92-9.886-18.162-24.927l-6.139-12.75-4.053-.015c-2.23-.009-4.729-.452-5.554-.985-1.14-.737-.728-.973 1.715-.985 1.769-.008 5.144-.652 7.5-1.43 2.357-.78 9.235-1.572 15.285-1.76 11.564-.363 15.555-1.747 20.577-7.138 1.046-1.123 2.204-1.74 2.573-1.37.37.369-.15 1.579-1.154 2.688-1.77 1.955-1.759 2.364.355 13.256 3.417 17.604 2.562 30.311-2.41 35.805-2.305 2.546-5.164 2.44-10.533-.389zm10.63-4.095c1-1.527 1.47-4.016 1.274-6.75-.3-4.162-.43-4.32-3.312-4.008-3.945.426-9.59 3.23-10.926 5.426-3.316 5.456 9.445 10.704 12.965 5.332zm43.859-9.011c-5.77-2.512-10.397-11.75-10.397-20.759 0-6.121 2.516-14.07 5.22-16.49 1.723-1.543 1.612-1.008-.728 3.488-2.45 4.705-2.692 6.001-2.13 11.377.349 3.337 1.163 7.832 1.809 9.988 3.098 10.341 17.81 14.39 24.294 6.685 7.784-9.251 6.629-29.821-1.992-35.47-4.245-2.781-10.816-2.97-15.178-.436-3.71 2.155-3.75 2.158-1.743.101 1.25-1.282 4.427-2.544 8.14-3.235 5.468-1.017 6.43-.932 9.445.828 9.675 5.65 12.484 20.947 6.25 34.035-4.479 9.404-14.349 13.65-22.99 9.888zm196.83-2.145c.949-.994 2-1.533 2.335-1.197.335.335-.441 1.148-1.726 1.807-2.233 1.145-2.26 1.118-.61-.61zm6.273-3.894c1.65-1.45 4.317-3.341 5.927-4.202 1.61-.86 5.21-3.163 8-5.116 2.79-1.954 6.198-4.292 7.573-5.195 1.375-.904 5.348-3.568 8.828-5.92 3.48-2.353 6.552-4.052 6.827-3.778.275.275-2.348 2.419-5.828 4.764-3.48 2.346-8.127 5.688-10.327 7.429-3.638 2.877-11.306 7.635-20.5 12.72l-3.5 1.935zM74.757 189.697c-4.685-3.28-1.757-16.291 4.932-21.92 3.991-3.358 5.132-3.187 3.049.458-1.282 2.242-1.438 3.404-.632 4.69 1.669 2.663 2.93 2.62 6.302-.218 2.827-2.379 3.126-2.448 3.126-.72 0 4.09-3.42 11.624-6.969 15.355-4.022 4.229-6.34 4.785-9.808 2.355zm33.777-10.443c0-.55.45-1 1-1s1 .45 1 1-.45 1-1 1-1-.45-1-1zm50-4.083c-9.346-3.857-11.564-13.788-4.8-21.491 3.715-4.231 4.986-4.377 3.485-.4-1.375 3.64-.1 6.308 3.25 6.804 4.758.705 8.244-6.777 4.576-9.82-3.947-3.277 3.254-3.705 8.166-.486 5.737 3.76 7.25 13.262 2.998 18.836-4.15 5.442-12.696 8.612-17.675 6.557zm-84.034-6.85c1.811-3.55 4.034-6.087 4.034-4.605 0 .76-5.15 8.538-5.653 8.538-.213 0 .515-1.77 1.619-3.932zm386.034-7.487c0-3.532-1.166-13.094-2.593-21.25-3.535-20.22-5.318-31.752-4.965-32.105.48-.48 4.457 17.692 5.53 25.275.546 3.85 1.674 10.825 2.509 15.5 1.735 9.725 1.989 19 .52 19-.564 0-1-2.807-1-6.42zm-378.102-2.316c3.338-4.353 4.926-5.774 5.648-5.052.227.227-1.682 2.41-4.242 4.85l-4.655 4.438zm159.602-1.264c.34-.55 1.38-.993 2.31-.985 1.457.014 1.483.15.19.985-1.958 1.266-3.282 1.266-2.5 0zm111.707-9c8.402-9.524 31.815-32.312 32.497-31.63.385.385-34.795 35.699-38.484 38.63-.346.275 2.349-2.875 5.987-7zm-102.207 5.582c0-.708 13.095-4.82 13.633-4.282.278.277-2.018 1.449-5.101 2.602-5.295 1.981-8.532 2.618-8.532 1.68zm-160-6.023c0-.792.36-1.663.798-1.934 1.28-.79 3.525 1.043 2.771 2.263-.992 1.606-3.569 1.368-3.569-.329zm181.506-2.127c5.566-3.778 6.783-5.558 14.315-20.948 7.936-16.212 11.637-26.523 10.767-29.99-.534-2.129-.164-2.525 3.153-3.371 15.253-3.893 52.841-6.537 55.052-3.873 3.746 4.515-14.115 22.7-35.821 36.469-14.855 9.424-45.532 24.281-50.134 24.281-.614 0 .586-1.156 2.668-2.568zm-181.906-4.539c-.986-3.076-1.473-15.637-.751-19.393.61-3.176.889-1.527 1.352 8 .554 11.421.393 14.49-.6 11.393zm110.9-6.418c4.876-4.089 10.712-8.055 15.21-10.338 6.317-3.206 6.43-2.582.277 1.522-3.018 2.012-7.574 5.387-10.126 7.5-2.55 2.112-5.476 3.839-6.5 3.836-1.514-.004-1.303-.473 1.14-2.52zm-78.76-4.565c1.735-1.808 2.507-2.064 3.432-1.138 1.485 1.485 1.1 1.884-2.674 2.768l-2.998.703zm63.073 1.407c.722-.289 1.584-.253 1.916.079.333.332-.258.568-1.312.525-1.165-.048-1.402-.285-.604-.604zm-54.813-2.817c1.375-.786 3.85-1.408 5.5-1.383l3 .045-3 1.374c-1.65.756-4.125 1.378-5.5 1.384l-2.5.01zm40.185.477c-2.924-.426-5.572-1.031-5.886-1.345-.726-.726 9.233.317 13.201 1.382 2.67.717 2.725.802.5.771-1.375-.019-4.892-.383-7.815-.808zm61.815-13.032c3.351-2.29 11.232-6.046 11.7-5.578.277.276-2.23 1.882-5.57 3.568-5.956 3.006-9.095 4.035-6.13 2.01zm-105.56-2.945c1.657-12.084 2.72-25.01 2.878-35 .173-10.932.08-11.515-1.885-11.796-3.399-.486-14.253 7.54-25.183 18.62-5.637 5.716-10.25 9.812-10.25 9.102 0-3.634 4.891-18.834 9.55-29.677 3.489-8.121 7.619-15.55 12.253-22.041 8.572-12.007 9.738-13.096 11.805-11.03 2.75 2.75 5.392 23.596 5.392 42.538 0 16.883-2.095 38.023-4.089 41.245-.674 1.09-.812.517-.472-1.961zm262.56-.198c0-1.742 25.542-24.594 26.461-23.674.206.205-2.627 2.943-6.294 6.084a708.434 708.434 0 0 0-13.417 11.86c-3.712 3.383-6.75 5.961-6.75 5.73zm-134.45-7.73c1.36-1.33 10.327-4.712 14.45-5.45 1.975-.355-.204.882-5 2.836-8.835 3.602-11.102 4.228-9.45 2.614zm19.263-6.755c.722-.289 1.584-.253 1.916.079.333.332-.258.568-1.312.525-1.165-.048-1.402-.285-.604-.604zm8.187-2.317c.825-.533 1.95-.97 2.5-.97s.325.437-.5.97c-.825.533-1.95.97-2.5.97s-.325-.437.5-.97zm161.958-12.626c-1.236-3.715-3.26-7.767-4.497-9.004-2.295-2.295-2.213-3.37.257-3.37.761 0 2.097 1.688 2.967 3.75 1.695 4.015 4.377 14.522 3.843 15.056-.177.177-1.334-2.718-2.57-6.432z" fill="#8b6d55"/><path className="pikachu9" d="M309.034 432.254c-.34-.55.309-1 1.441-1 1.133 0 2.06.45 2.06 1s-.65 1-1.442 1c-.792 0-1.719-.45-2.059-1zm-9.286-5.612c-3.277-2.582-8.312-11.343-9.61-16.722-1.163-4.818.982-2.068 3.26 4.18 3.102 8.507 8.124 14.308 8.143 9.404.005-1.251.573-.895 1.993 1.25 1.093 1.65 1.99 3.338 1.994 3.75.013 1.5-2.569.669-5.78-1.862zm-122.983.06c-2.878-2.015-4.968-5.668-2.759-4.82 1.28.49 1.416-.168.866-4.179-.477-3.485-.342-4.57.505-4.046.636.393 1.16 2.151 1.164 3.906.004 1.755.9 4.541 1.993 6.191 3.107 4.691 2.4 5.87-1.77 2.949zm9.262-.47c-.874-2.755-.278-3.272 1.92-1.665 1.562 1.142 1.593 1.438.262 2.542-1.25 1.037-1.622.888-2.182-.878zm124.704-6.101c-1.817-3.907-3.047-7.36-2.734-7.673.93-.93 2.121 1.018 3.427 5.605.674 2.37 2.077 5.038 3.117 5.929 1.738 1.488 1.839 3.276.184 3.252-.38-.005-2.177-3.206-3.994-7.113zm-11.162-1.811c-1.27-2.374-1.397-5.861-.164-4.516 1.008 1.099 2.404 6.45 1.684 6.45-.267 0-.95-.87-1.52-1.934zm-110.428-.648c-.334-.87-.607-4.079-.607-7.131v-5.55l-3.75.587c-16.574 2.597-16.672 2.604-18.22 1.21-.842-.758-2.88-1.693-4.53-2.078-7.131-1.662-22.5-11.045-22.5-13.736 0-.612 1.463.267 3.25 1.954 6.51 6.141 13.903 9.478 24.985 11.278 5.048.82 6.797.599 14.603-1.849 4.878-1.529 11.523-4.372 14.766-6.318 6.34-3.803 12.663-6.196 14.636-5.538.673.224-.888 1.127-3.468 2.006-2.58.879-7.905 3.677-11.832 6.217l-7.14 4.62.704 7.955c.678 7.655.387 9.72-.897 6.373zm-5.857.01c-.412-.419-.75-1.901-.75-3.295 0-1.82.305-2.228 1.085-1.448.597.596.934 2.079.75 3.295-.184 1.215-.672 1.867-1.085 1.448zm104.98-12.52c-2.718-1.582-1.07-2.91 3.58-2.886l4.19.023-2.5 1.955c-2.894 2.264-2.931 2.27-5.27.908zm19.854-8c1.042-1.151 2.686-2.517 3.655-3.036 1.414-.756 1.761-.54 1.761 1.093 0 1.348-.655 2.035-1.94 2.035-1.068 0-2.22.45-2.56 1-.34.55-1.11 1-1.714 1-.603 0-.243-.942.798-2.093zm10.858-14.408c.385-1.65 1.176-3.45 1.758-4 .739-.698.847-.094.359 2-.385 1.65-1.177 3.45-1.759 4-.738.698-.847.094-.358-2zM129.2 374.587c-.367-.366-.638-1.604-.603-2.75.058-1.915.14-1.89 1.021.312.98 2.448.776 3.633-.418 2.438zm193.421-10.833l-1.069-14.61c-.508-6.936-1.653-14.586-2.546-17-6.474-17.51-6.627-17.79-11.125-20.426-4.938-2.894-7.106-6.418-8.01-13.023-.347-2.526-1.596-6.021-2.777-7.767-3.208-4.742-3.985-6.5-1.625-3.674 6.2 7.423 8.27 10.356 13.65 19.342 5.837 9.748 5.925 9.837 9.23 9.3 4.663-.756 12.184-5.358 12.184-7.455 0-.95-4.5-6.593-10-12.538-5.5-5.946-10-11.085-10-11.422 0-.336 4.883 4.2 10.85 10.08 12.316 12.136 14.918 13.474 12.175 6.258-1.195-3.144-1.198-3.144 2.975-.065 1.864 1.375 3.751 2.5 4.195 2.5 1.45 0 .844-6.497-.843-9.027-2.643-3.966 9.252 7.885 15.296 15.24 3.035 3.69 5.267 7.116 4.962 7.61-.306.495-5.63 3.017-11.833 5.605-16.104 6.72-19.777 8.647-19.777 10.38 0 .843 3.017 4.657 6.704 8.476 6.12 6.34 6.55 7.057 4.941 8.234-.97.709-4.519 1.775-7.886 2.368-3.368.593-6.48 1.435-6.917 1.872-.436.437-1.202 3.257-1.7 6.268-.5 3.01-.974 4.574-1.054 3.474zm-207.421-56.167c-.367-.366-.65-2.054-.631-3.75l.035-3.083 1.43 2.5c2.145 3.754 1.572 6.739-.834 4.333zm-72.854-10.016c.722-.289 1.584-.253 1.916.079.333.332-.258.568-1.312.525-1.165-.048-1.402-.285-.604-.604zm292.437-9.454c-.687-.695-1.25-1.566-1.25-1.936 0-.37 4.163-3.458 9.25-6.86 16.36-10.941 21.75-15.288 21.75-17.542 0-.605-1.62-4.908-3.6-9.563-6.442-15.146-6.139-13.693-3.38-16.214 1.352-1.236 1.9-1.595 1.22-.798-1.974 2.31-1.518 4.337 3.26 14.496 2.475 5.262 4.5 10.378 4.5 11.37 0 2.32-1.815 4.765-5.156 6.948-13.043 8.522-24.754 17.56-25.026 19.313-.255 1.646-.563 1.8-1.568.786zm-125.862-3.394c-.912-1.392-1.477-2.713-1.254-2.936.222-.222 1.162.917 2.089 2.532 2.063 3.595 1.45 3.892-.835.404zM49.06 281.295c-.413-.668-.258-1.709.345-2.311 1.536-1.537 2.51-.231 1.36 1.823-.7 1.25-1.154 1.38-1.705.488zm255.053-2.914c-1.027-1.661.449-3.224 9.302-9.846 4.19-3.135 10.23-7.855 13.421-10.49 3.191-2.635 6.218-4.791 6.727-4.791.509 0 1.652-1.11 2.541-2.467 1.555-2.372 1.422-2.874-3.489-13.154-5.303-11.102-6.32-15.591-1.41-6.228 3.704 7.063 8.33 16.948 8.33 17.799 0 .935-24.576 20.698-30.305 24.37-1.542.988-3.155 2.747-3.585 3.91-.542 1.466-1.01 1.74-1.532.897zm-82.329-4.264c-1.5-1.516-1.652-5.497-.243-6.367 1.322-.817 2.225 1.66 1.818 4.983-.26 2.126-.571 2.399-1.575 1.384zm-181.25-1.863c0-.55.45-1 1-1s1 .45 1 1-.45 1-1 1-1-.45-1-1zm160.211-5.67c-1.258-1.972-2.094-3.78-1.856-4.018.734-.734 5.645 4.69 5.645 6.233 0 2.387-1.358 1.592-3.789-2.215zm78.79.936c-4.599-1.904-6.802-3.96-9.126-8.513-2.513-4.924-3.73-13.205-1.848-12.577.735.244 1.816 1.812 2.404 3.484.588 1.671 3.725 6.489 6.97 10.705 3.245 4.217 5.72 7.82 5.5 8.009-.22.188-1.976-.31-3.9-1.108zm-238.5-.266c.34-.55 1.067-1 1.617-1s.722.45.382 1c-.34.55-1.068 1-1.618 1s-.722-.45-.382-1zm9.5.57c0-.275.9-.981 2-1.57 1.1-.589 2-.845 2-.57s-.9.981-2 1.57c-1.1.589-2 .845-2 .57zm152.86-11.76c2.281-5.37 4.14-6.085 4.14-1.593 0 3.736-1.473 5.783-4.16 5.783-1.675 0-1.674-.2.02-4.19zm29.385-6.06c-2.492-4.704-2.72-5.75-1.26-5.75.543 0 1.648 1.581 2.456 3.514.807 1.933 2.163 3.781 3.013 4.107 2.095.804 1.959 2.379-.206 2.379-1.042 0-2.665-1.724-4.003-4.25zm-135.996 2.588c-1.676-.677-1.6-3.338.095-3.338.74 0 2.16.9 3.155 2 1.75 1.934 1.747 1.997-.095 1.921-1.047-.043-2.467-.306-3.155-.583zm110.75-6.231c0-.893 2.352-2.107 4.082-2.107.505 0 .918.675.918 1.5 0 .933-.944 1.5-2.5 1.5-1.375 0-2.5-.402-2.5-.893zm13-2.094c-.825-.478-2.338-1.131-3.362-1.453-1.524-.477-1.638-.854-.628-2.072.68-.818 2.237-1.488 3.46-1.488 1.788 0 2.243.591 2.311 3 .047 1.65.003 2.974-.098 2.941-.1-.032-.858-.45-1.683-.928zM76.768 234.004c-3.647-4.774-9.234-14.68-9.234-16.372 0-.378 1.774 1.97 3.942 5.217 4.268 6.393 7.533 10.405 8.469 10.405 1.432 0 .375-8.577-1.974-16.01-2.783-8.81-2.796-12.487-.024-7.147 3.258 6.279 5.805 18.222 5.097 23.907-.36 2.888-1.017 5.25-1.46 5.25-.444 0-2.611-2.362-4.816-5.25zm49.669-.994c-5.56-4.241-8.914-9.192-16.403-24.217l-6-12.039-4.5-.6c-3.604-.48-3.866-.63-1.315-.75 1.752-.082 4.452-.66 6-1.283 1.548-.622 6.128-1.05 10.176-.952 9.491.233 17-1.36 21.253-4.506l3.386-2.507 1.312 8.3c1.822 11.522 2.59 26.743 1.251 24.798-.567-.825-1.039-2.527-1.047-3.781-.025-3.586-2.559-3.672-7.326-.248-4.256 3.057-8.69 9.302-8.69 12.24 0 .793 1.134 2.505 2.52 3.807 1.955 1.837 3.637 2.367 7.519 2.367 6.005 0 6.232 1.971.277 2.416-3.29.245-4.83-.312-8.413-3.045zm59.113-10.78c-7.694-1.809-14.068-13.833-12.498-23.577l.788-4.899 1.244 7.5c1.606 9.688 2.616 12.12 6.33 15.245 5.88 4.948 15.253 4.763 19.585-.385 8.567-10.181 6.404-31.248-3.715-36.192-4.41-2.155-5.05-4.206-1-3.205 6.333 1.565 12.254 10.389 12.244 18.247-.016 13.6-3.333 21.06-11.488 25.84-4.4 2.578-5.834 2.756-11.49 1.426zm-119.816-7.176c-.66-.66-1.2-2.325-1.2-3.7 0-3.048 1.479-1.718 2.39 2.15.723 3.067.551 3.291-1.19 1.55zm251.649-7.55c-1.96-2.346-4.155-7.557-2.842-6.746 1.03.637 5.349 8.496 4.669 8.496-.201 0-1.023-.787-1.827-1.75zm82.151.347c0-.618 8.922-6.603 9.8-6.575.385.012-.425.927-1.8 2.032-2.865 2.304-8 5.219-8 4.543zm-335.249-1.597c-1.098-2.852-1.694-7.984-1.105-9.519.4-1.04 1.284-1.331 2.723-.896 2.517.762 6.631 4.337 6.631 5.764 0 .55-1.123-.056-2.496-1.345-2.983-2.803-3.668-2.308-4.525 3.265-.365 2.376-.904 3.573-1.228 2.731zm249.142-11.75c1.591-2.894 6.107-8.697 6.107-7.849 0 .435-.826 1.985-1.837 3.445-1.01 1.46-2.121 3.442-2.469 4.404-.347.963-1.11 1.75-1.698 1.75-.715 0-.75-.575-.103-1.75zm-237.393-4.453c-2.846-1.602-3.47-2.828-3.462-6.797.01-5.14 3.703-12.346 8.077-15.76 1.425-1.112 1.602-.833 1.5 2.365-.16 5.034 2.405 6.665 5.665 3.602 3.019-2.836 3.787-2.037 2.51 2.61-2.957 10.748-9.193 16.85-14.29 13.98zm78.774-17.362c-5.925-4.67-6.185-13.456-.58-19.648 2.34-2.587 2.955-2.217 2.519 1.519-.704 6.03 5.21 7.718 9.032 2.578 1.832-2.463 1.85-2.799.325-5.75-1.614-3.12-1.61-3.134.954-3.134 6.383 0 11.476 5.932 11.476 13.366 0 2.592-.882 4.57-3.234 7.248-5.952 6.779-14.675 8.405-20.492 3.821zm78.87-3.185c-1.09-2.55-1.066-2.609.34-.809.834 1.068 1.516 2.305 1.516 2.75 0 1.52-.678.81-1.855-1.941zm-5.144-8.719c0-.892.587-1.243 1.495-.895.821.316 1.245.976.94 1.469-.872 1.412-2.435 1.044-2.435-.574zm-136-12.972c0-.857.45-1.559 1-1.559s1 .423 1 .941-.45 1.22-1 1.559c-.55.34-1-.083-1-.94zm263.745-2.059c.59-1.1 2.318-3.125 3.841-4.5l2.77-2.5-2.131 3.089c-1.172 1.699-2.901 3.724-3.842 4.5-1.547 1.276-1.608 1.22-.638-.589zm-78.57-3.39c1.984-2.32 4.895-7.002 6.467-10.406 1.572-3.405 4.482-9.343 6.467-13.197 4.865-9.446 8.247-19.98 7.543-23.5-.537-2.681-.321-2.884 4.141-3.907 11.958-2.741 46.7-5.95 51.457-4.754 4.246 1.068 3.559 4.511-2.297 11.52-6.25 7.479-17.48 16.878-29.953 25.067-9.762 6.41-39.177 21.414-44.467 22.682l-2.968.711zm-186.675-3.11c-.34-.55-.141-1 .441-1 .583 0 1.06.45 1.06 1s-.2 1-.442 1-.719-.45-1.059-1zm113.849-5.845c3.48-3.565 11.651-8.986 11.651-7.731 0 .303-1.687 1.64-3.75 2.97-2.062 1.331-5.24 3.812-7.061 5.513-4.705 4.394-5.324 3.84-.84-.752zm-80.849-3.155c.34-.55 1.293-1 2.118-1s1.222.45.882 1c-.34.55-1.293 1-2.118 1s-1.222-.45-.882-1zm8.5-2c1.976-1.277 5.29-1.277 4.5 0-.34.55-1.829.993-3.309.985-2.105-.012-2.364-.227-1.19-.985zm323.556-2.556c-.377-2.006-.485-3.848-.24-4.093.244-.244.752 1.198 1.129 3.205.376 2.006.484 3.848.24 4.093-.245.244-.753-1.198-1.13-3.205zm-73.556-5.944c1.292-1.375 2.574-2.5 2.849-2.5.275 0-.557 1.125-1.849 2.5-1.291 1.375-2.573 2.5-2.848 2.5-.275 0 .557-1.125 1.848-2.5zm17.5-16.5c.996-1.1 2.035-2 2.31-2 .275 0-.314.9-1.31 2-.995 1.1-2.035 2-2.31 2-.275 0 .315-.9 1.31-2zm-269.42-7.583c.047-1.165.284-1.402.603-.604.29.721.254 1.584-.079 1.916-.332.332-.568-.258-.525-1.312zm-36.46-2.25c-.64-1.079 3.145-14.523 6.383-22.675 5.78-14.55 12.946-26.677 22.441-37.98 2.221-2.643 2.68-2.816 3.995-1.5 1.654 1.658 5.56 23.635 5.561 31.288 0 4.273-.191 4.692-1.746 3.822-3.325-1.86-12.82 4.418-24.996 16.53-6.183 6.15-11.42 10.883-11.637 10.516zm349.967-14.579c-.927-2.426-2.338-4.662-3.136-4.968-1.828-.702-1.903-2.62-.103-2.62 1.268 0 3.76 4.708 5.162 9.75 1.068 3.845-.153 2.471-1.923-2.162z" fill="#6f6355"/><path className="pikachu10" d="M301.78 427.004c-.55-.687-.707-2.048-.351-3.023.553-1.513.908-1.33 2.433 1.25 1.454 2.462 1.52 3.023.351 3.023-.788 0-1.883-.562-2.433-1.25zm-125.32-1.34c-1.592-1.918-2.457-12.856-.942-11.92.559.345 1.016 2.01 1.016 3.701 0 1.69.937 4.589 2.082 6.441 1.648 2.667 1.778 3.368.622 3.368-.802 0-2.052-.715-2.778-1.59zm9.484.214c-.836-2.177-.251-2.762 1.61-1.611 1.144.707 1.2 1.167.255 2.113-.945.945-1.352.835-1.865-.502zm124.62-6.216c-1.749-3.625-2.913-6.858-2.588-7.183.945-.945 2.13.956 3.416 5.48.658 2.313 1.859 4.869 2.669 5.679 1.676 1.676 1.884 2.616.578 2.616-.493 0-2.326-2.966-4.075-6.592zm-10.995-1.342c-1.27-2.374-1.397-5.861-.164-4.516 1.008 1.099 2.404 6.45 1.684 6.45-.267 0-.95-.87-1.52-1.934zm-116.285-.638c-.412-.419-.75-1.901-.75-3.295 0-1.82.305-2.228 1.085-1.448.597.596.934 2.079.75 3.295-.184 1.215-.672 1.867-1.085 1.448zm5.408-2.428c0-1.375.227-1.937.505-1.25.277.688.277 1.813 0 2.5-.278.688-.505.125-.505-1.25zm-21.767-9.162l-1.89-2.13 4.281.555c7.014.91 20.815-3.858 31.968-11.043 1.238-.798 2.25-1.189 2.25-.87 0 .32-3.093 2.6-6.875 5.068-3.781 2.469-7.104 5.086-7.384 5.816-.298.775-3.777 1.862-8.375 2.614-4.326.708-8.815 1.475-9.975 1.704-1.291.254-2.844-.411-4-1.714zm122.065-1.887c-1.724-1.905-1.667-1.951 2.39-1.951 2.285 0 4.154.173 4.154.385 0 .212-1.075 1.09-2.39 1.95-2.211 1.45-2.52 1.422-4.154-.384zm19.469-7.314c1.333-1.45 2.795-2.637 3.25-2.637 1.573 0 .817 2.77-.925 3.384a68.09 68.09 0 0 0-3.25 1.254c-.825.35-.409-.55.925-2zm13.811-39.637c-.315-.825-.809-5.775-1.096-11-.398-7.224-1.27-11.536-3.643-18-4.638-12.64-4.516-11.949-1.993-11.289 1.4.366 4.74-.652 9.172-2.796 7.266-3.515 7.524-3.966 5.301-9.281-.699-1.673-.547-1.742 1.457-.67 2.94 1.574 3.53.806 2.234-2.913-.585-1.678-.95-3.051-.81-3.051.14 0 1.779 1.125 3.642 2.5 4.354 3.212 5 3.147 5-.5 0-1.65.42-3 .932-3 .981 0 14.93 15.003 16.413 17.652 1.171 2.092.788 2.333-12.345 7.767-15.169 6.276-18.43 8.024-18.847 10.1-.218 1.084 2.172 4.273 6.372 8.506 3.695 3.724 6.438 7.226 6.094 7.783-.344.556-3.78 1.575-7.634 2.264-7.228 1.292-8.448 2.01-9.222 5.428-.352 1.552-.582 1.664-1.027.5zm-15.523-46.139c-1.808-1.157-3.953-3.392-4.767-4.966-1.561-3.019-3.14-11.895-2.116-11.895.33 0 3.092 3.782 6.136 8.404 7.145 10.85 7.305 12.657.747 8.457zm-191.546-4.528c-.367-.366-.65-1.829-.631-3.25l.035-2.583 1.43 2.5c.785 1.375 1.444 2.838 1.464 3.25.044.93-1.4.982-2.298.083zm210.848-6.052l-1.756-2.781 2.315 2.222c1.273 1.222 2.064 2.474 1.756 2.781-.307.308-1.349-.692-2.315-2.222zm-117.127-15.812c-.912-1.392-1.477-2.713-1.254-2.936.222-.222 1.162.917 2.089 2.532 2.063 3.595 1.45 3.892-.835.404zm124.612 1.531c0-.55.45-1 1-1s1 .45 1 1-.45 1-1 1-1-.45-1-1zm-285-5.94c0-.518.45-1.22 1-1.56.55-.34 1 .084 1 .941s-.45 1.559-1 1.559-1-.423-1-.94zm173.25-6.197c-1.5-1.516-1.652-5.497-.243-6.367 1.322-.817 2.225 1.66 1.818 4.983-.26 2.126-.571 2.399-1.575 1.384zm89.77-3.387c.696-.838 1.471-1.318 1.723-1.067.693.694-.716 2.591-1.924 2.591-.663 0-.587-.574.201-1.524zm-110.522-3.805c-3.044-4.952-3.011-5.24.297-2.621 3.052 2.416 3.947 4.374 2.428 5.312-.427.264-1.654-.947-2.725-2.69zm77.523.155c-3.47-1.303-5.926-3.724-8.1-7.984-2.266-4.44-3.613-11.842-2.156-11.842 1.286 0 2.235 2.414 2.235 5.68 0 3.3 2.744 9.008 4.689 9.754 1.14.438 1.365.137.875-1.173-.393-1.048.623-.49 2.508 1.378 3.676 3.642 3.652 5.577-.051 4.187zm-76.382-8.326c.316-.825 1.315-1.507 2.218-1.515 1.3-.012 1.36-.195.29-.873-1.055-.669-1.103-1.326-.215-2.985 2.454-4.585 4.148-1.097 2.093 4.308-.597 1.57-1.749 2.565-2.969 2.565-1.36 0-1.81-.476-1.417-1.5zm160.29-2.929c-1.153-2.605-1.845-4.988-1.537-5.296.307-.307 1.48 1.594 2.608 4.225 1.128 2.63 1.82 5.014 1.538 5.296-.283.282-1.457-1.619-2.61-4.225zm-32.429.429c.34-.55.817-1 1.06-1 .242 0 .44.45.44 1s-.476 1-1.059 1c-.582 0-.78-.45-.44-1zM96.88 251.711c-1-2.607.592-2.964 2.905-.651l2.195 2.194h-2.254c-1.24 0-2.52-.694-2.846-1.543zm135.885-2.457c-1.534-3.1-1.67-4-.604-4 .756 0 1.374.614 1.374 1.365s.933 2.551 2.073 4c1.606 2.042 1.742 2.635.604 2.635-.807 0-2.358-1.8-3.447-4zm105.409-.5c-.317-.825-.14-1.5.393-1.5.532 0 .968.675.968 1.5s-.177 1.5-.393 1.5c-.216 0-.652-.675-.968-1.5zm-130.139-2.5c-.34-.55-.403-1-.14-1 .262 0 1.189-.273 2.058-.607 1.038-.398 1.582-.054 1.582 1 0 1.764-2.515 2.2-3.5.607zm9.622-3.903c-1.787-1.133-.559-3.097 1.937-3.097 1.275 0 1.941.687 1.941 2 0 2.11-1.576 2.555-3.878 1.097zm138.443-.804c-.543-1.425-.428-1.54.56-.56.683.679.99 1.486.682 1.793-.308.308-.867-.247-1.242-1.233zm-279.865-9.043c-4.069-5.298-8.7-13.21-8.7-14.865 0-.382 1.774 1.962 3.942 5.21 4.268 6.393 7.533 10.405 8.469 10.405 1.432 0 .375-8.577-1.974-16.01-2.88-9.117-2.766-12.548.217-6.49 3.264 6.631 5.665 17.886 4.902 22.977-.373 2.488-1.074 4.523-1.559 4.523-.484 0-2.867-2.587-5.297-5.75zm53.55 3.088c-2.831-1.143-.915-1.817 4.25-1.495 3.027.188 5.251.75 4.943 1.25-.585.947-7.027 1.119-9.193.245zm-6.897-5.588c-4-4.278-6.72-8.791-13.353-22.163l-5.5-11.087-4.5-.6c-3.604-.48-3.866-.63-1.315-.75 1.752-.082 4.452-.66 6-1.283 1.548-.622 6.128-1.05 10.176-.952 9.491.233 17-1.36 21.253-4.506l3.386-2.507 1.27 8.3c.697 4.564 1.542 10.677 1.876 13.584l.608 5.287-2.627-1.197c-2.83-1.29-3.36-2.465-1.402-3.117.961-.32.942-2.112-.088-8.334-.722-4.359-1.671-8.3-2.11-8.76-.438-.46-2.311-.047-4.162.916-2.32 1.208-6.552 1.896-13.637 2.217-5.65.257-10.518.863-10.817 1.347-1.097 1.774 11.517 26.855 13.507 26.855.358 0 1.429-1.317 2.38-2.926 2.065-3.496 9.504-9.606 10.492-8.618.384.384-.727 1.9-2.469 3.371-6.17 5.21-9.275 13.819-6.12 16.973.66.66.973 1.2.695 1.2-.277 0-1.871-1.462-3.543-3.25zm62.663-7.774c-7.694-1.809-14.068-13.833-12.498-23.577l.788-4.899 1.244 7.5c1.606 9.688 2.616 12.12 6.33 15.245 5.88 4.948 15.253 4.763 19.585-.385 8.567-10.181 6.404-31.248-3.715-36.192-4.41-2.155-5.05-4.206-1-3.205 6.333 1.565 12.254 10.389 12.244 18.247-.016 13.6-3.333 21.06-11.488 25.84-4.4 2.578-5.834 2.756-11.49 1.426zm-119.392-7.515c-.343-.893-.585-2.375-.538-3.293.047-.917.483-.34.967 1.282.943 3.156.61 4.718-.43 2.011zm-1.51-8.961c-.074-1.1-.415-3.687-.756-5.75-.575-3.484-.445-3.75 1.837-3.75 1.351 0 3.435 1.042 4.631 2.314 3.005 3.199 2.744 4.57-.322 1.69-2.978-2.798-3.655-2.314-4.564 3.265-.38 2.327-.75 3.331-.826 2.231zm11.386-15.703c-2.846-1.602-3.47-2.828-3.462-6.797.007-4.053 2.767-10.505 5.88-13.75 2.807-2.924 3.447-2.84 2.648.346-.371 1.478-.15 3.2.514 4 1.343 1.618 5.508 1.88 6.42.404.993-1.606 2.501-1.152 2.49.75-.014 2.578-4.411 11.496-6.598 13.382-2.726 2.352-5.597 2.957-7.892 1.665zm78.774-17.362c-2.017-1.59-3.633-4.054-4.312-6.578-.95-3.53-.797-4.616 1.226-8.652 2.579-5.147 4.822-6.709 4.083-2.842-.514 2.692 2.621 6.637 5.275 6.637 4.006 0 8.487-8.626 5.454-10.5-1.707-1.055-1.1-2.5 1.05-2.5 5.863 0 10.95 6.21 10.95 13.366 0 2.592-.882 4.57-3.234 7.248-5.952 6.779-14.675 8.405-20.492 3.821zm73.726-11.994c0-.857.458-1.276 1.017-.93.559.345.757 1.046.44 1.558-.857 1.387-1.457 1.129-1.457-.628zm50.291-19.735c1.914-2.507 4.537-6.954 5.83-9.882 1.293-2.928 3.88-8.249 5.75-11.824 4.35-8.321 9.274-22.459 8.513-24.442-.391-1.02.256-1.85 1.944-2.493 8.06-3.064 53.623-6.571 55.065-4.239 2.366 3.828-14.588 21.201-32.046 32.84-11.505 7.67-39.944 22.56-45.69 23.923l-2.845.675zM94.535 92.479c0-.55 1.124-4.881 2.498-9.623 5.01-17.291 14.522-35.34 25.877-49.102 3.434-4.162 4.481-2.728 6.701 9.172 2.2 11.79 2.549 23.725.673 23.035-2.918-1.072-13.521 6.15-24.44 16.647-6.22 5.98-11.31 10.422-11.31 9.87z" fill="#855e3a"/><path className="pikachu11" d="M302.077 427.323c-1.002-1.621 1.175-2.114 2.466-.558 1.005 1.21.944 1.489-.327 1.489-.86 0-1.823-.419-2.139-.93zm-126.043-2.069c-1.437-1.588-1.51-2-.355-2 1.569 0 3.855 1.898 3.855 3.2 0 1.417-1.64.854-3.5-1.2zm10.5 1c0-.55.477-1 1.06-1 .582 0 .78.45.44 1s-.816 1-1.059 1c-.242 0-.44-.45-.44-1zm127-1.059c0-.582.45-.78 1-.441.55.34 1 .817 1 1.06 0 .242-.45.44-1 .44s-1-.477-1-1.059zm-14.5-8.941c-.34-.55-.141-1 .441-1 .583 0 1.06.45 1.06 1s-.2 1-.442 1-.719-.45-1.059-1zm9.96-1.066c-.363-.587-.446-1.281-.183-1.544.262-.262.743.218 1.068 1.067.677 1.762.1 2.072-.886.477zm-142.01-8.99c-1.684-1.86-1.678-1.941.145-1.874 1.048.039 2.691.382 3.652.762 1.63.646 1.621.77-.147 1.873-1.556.972-2.205.837-3.65-.761zm8.1-.747c.523-.442 4.325-1.842 8.45-3.11 4.125-1.268 9.075-3.19 11-4.27 2.955-1.657 3.133-1.679 1.14-.14a86.146 86.146 0 0 0-4.652 3.93c-2.401 2.207-9.433 4.393-14.13 4.393-1.517 0-2.33-.362-1.808-.803zm114.117-.864c-1.36-1.36-.595-2.333 1.833-2.333 2.793 0 3.353 1.459.918 2.393-1.958.752-1.94.752-2.751-.06zm-90.667-8.763c0-.275.9-.981 2-1.57 1.1-.589 2-.845 2-.57s-.9.981-2 1.57c-1.1.589-2 .845-2 .57zm112.5-.57c.34-.55.817-1 1.06-1 .242 0 .44.45.44 1s-.476 1-1.059 1c-.582 0-.78-.45-.44-1zm11.12-46.46c-.767-9.904-3.034-19.147-6.7-27.317-2.367-5.273-2.372-5.154.183-4.486 2.627.687 15.897-5.57 15.897-7.496 0-.755-.466-2.243-1.035-3.307-.57-1.064-.639-1.934-.155-1.934 1.538 0 4.413 3.83 3.72 4.953-.367.594-3.99 3.32-8.049 6.06l-7.381 4.98 1.467 3.514c2.08 4.978 5.418 19.36 5.426 23.382l.007 3.39 5.024-.595c2.763-.328 5.471-.872 6.017-1.21.547-.337-1.939-3.827-5.523-7.754-3.585-3.928-6.518-7.878-6.518-8.779 0-.978 1.711-2.36 4.25-3.432 8.005-3.38 26.25-11.817 27.042-12.505.436-.378-2.377-4.44-6.25-9.025s-7.02-8.819-6.994-9.408c.05-1.14 13.114 12.358 15.708 16.23.885 1.321 1.159 2.634.643 3.08-.494.429-6.074 2.92-12.399 5.538-15.169 6.276-18.43 8.024-18.847 10.1-.218 1.084 2.172 4.273 6.372 8.506 3.695 3.724 6.438 7.226 6.094 7.783-.344.556-3.78 1.575-7.634 2.264-7.242 1.294-8.48 2.026-9.182 5.428-.227 1.1-.76-2.482-1.183-7.96zm-16.338-39.03c-3.122-2.673-4.358-4.658-5.273-8.472-.657-2.74-1.008-5.541-.78-6.227.433-1.297 11.771 15.168 11.771 17.093 0 1.856-1.472 1.24-5.718-2.395zm-190.739-3.44a1.086 1.086 0 0 1 .336-1.495c.502-.31 1.17.109 1.485.93.622 1.62-.88 2.086-1.821.564zm210.972-5.789l-1.756-2.781 2.315 2.222c1.273 1.222 2.064 2.474 1.756 2.781-.307.308-1.349-.692-2.315-2.222zM49.034 280.254c.34-.55.817-1 1.06-1 .242 0 .44.45.44 1s-.476 1-1.059 1c-.582 0-.78-.45-.44-1zm171.9-8.547c-.352-1.4-.336-2.85.035-3.22.868-.87 2.53 1.748 2.55 4.017.023 2.667-1.862 2.086-2.586-.797zm89.6.17c0-.208.788-.996 1.75-1.75 1.586-1.244 1.622-1.209.378.377-1.307 1.666-2.128 2.196-2.128 1.372zm-109.44-5.873l-1.872-3.25 2.656 2.424c2.624 2.395 3.396 4.076 1.872 4.076-.432 0-1.627-1.462-2.656-3.25zm75.196-.32c-3.775-2.047-10.302-16.217-8.363-18.156 1.078-1.078 2.575 1.851 2.592 5.075.02 3.593 2.686 9.31 4.704 10.085 1.144.439 1.362.14.859-1.17-.43-1.12.439-.693 2.388 1.175 4.706 4.508 3.546 6.099-2.18 2.992zm-73.756-6.38c0-.523.563-1.31 1.25-1.75.688-.44 1.25-1.887 1.25-3.217 0-1.329.631-2.627 1.403-2.884 1.106-.369 1.272.336.785 3.336-.562 3.464-1.967 5.41-3.938 5.45-.412.008-.75-.413-.75-.935zm161.028-1.411l-2.003-5.139c-.536-1.375-.745-2.5-.464-2.5.79 0 4.554 9.219 3.992 9.78-.273.274-.96-.69-1.525-2.141zm-129.028-5.608c0-.532.675-.71 1.5-.393.825.317 1.5.753 1.5.969 0 .216-.675.393-1.5.393s-1.5-.436-1.5-.969zm-138-1.5c0-.894.587-1.243 1.5-.893.825.317 1.5.978 1.5 1.469 0 .491-.675.893-1.5.893s-1.5-.66-1.5-1.469zm135.516-3.147c-1.1-1.68-1.266-2.467-.46-2.199.689.23 1.62 1.407 2.067 2.617 1.084 2.931.486 2.775-1.607-.418zm-23.516-1.277c0-.491.675-1.152 1.5-1.469.914-.35 1.5-.002 1.5.893 0 .808-.675 1.469-1.5 1.469s-1.5-.402-1.5-.893zm9.209-3.783c-.992-.398-1.022-.844-.128-1.921 1.702-2.05 3.92-1.713 3.92.597 0 1.954-1.189 2.368-3.792 1.324zm-138.37-6.098a84.26 84.26 0 0 1-2.866-3.726c-1.396-1.942-1.378-1.949.623-.25 1.134.963 2.814 1.75 3.733 1.75.92 0 1.671.648 1.671 1.441 0 2.275-1.6 2.673-3.16.785zm50.833-1.476c-1.436-1.049-.904-1.194 3.308-.903 2.76.19 4.768.753 4.46 1.25-.817 1.323-5.786 1.101-7.768-.347zm-12.353-12c-2.567-3.987-5.514-9.458-6.549-12.157-2.618-6.83-4.671-10.729-6.98-13.257-1.908-2.089-1.913-2.2-.134-3.133 1.014-.532 7.312-1.156 13.994-1.387 11.08-.381 12.501-.65 16.133-3.054l3.983-2.635 1.739 8.687c.957 4.777 1.956 10.61 2.22 12.961l.48 4.276-2.602-1.186c-2.809-1.28-3.33-2.456-1.378-3.106.961-.32.942-2.112-.088-8.334-.722-4.359-1.671-8.3-2.11-8.76-.438-.46-2.311-.047-4.162.916-2.32 1.208-6.552 1.896-13.637 2.217-5.65.257-10.518.863-10.817 1.347-1.097 1.774 11.517 26.855 13.507 26.855.358 0 1.429-1.317 2.38-2.926 2.065-3.496 9.504-9.606 10.492-8.618.384.384-.727 1.9-2.469 3.371-4.08 3.446-7.312 8.932-7.317 12.423-.006 4.39-1.691 3.256-6.685-4.5zm65.01-2.208c-1.744-.758-3.704-2.375-4.355-3.592-1.144-2.136-1.068-2.126 2.17.291 1.846 1.377 4.706 2.976 6.356 3.552 2.116.74 2.41 1.06 1 1.089-1.1.022-3.427-.581-5.171-1.34zm-104.764-7.249c-.543-1.425-.428-1.54.56-.56.683.679.99 1.486.682 1.793-.308.308-.867-.247-1.242-1.233zm95.593-8.293c0-1.375.227-1.937.505-1.25.277.688.277 1.813 0 2.5-.278.688-.505.125-.505-1.25zm-110.158-6.5c0-1.556.567-2.5 1.5-2.5 1.614 0 1.854.916.893 3.418-.934 2.435-2.393 1.875-2.393-.918zm10.411-10.996c-2.693-4.11.328-14.302 5.633-19.004l2.256-2-.693 2.846c-.415 1.705-.226 3.408.473 4.25 1.343 1.618 5.508 1.88 6.42.404 1.321-2.137 2.704-.946 2.032 1.75-2.954 11.849-11.822 18.315-16.12 11.754zm130.213-3.043c-.965-2.514-.68-3.163.498-1.136.584 1.004.85 2.036.593 2.293-.257.258-.748-.263-1.091-1.157zm-7.624-6.461c-1.292-.835-1.266-.971.191-.985.93-.008 1.97.435 2.31.985.781 1.266-.542 1.266-2.5 0zm-40.432-4.946c-5.81-3.83-7.318-11.485-3.486-17.686 2.437-3.943 3.832-4.367 3.182-.966-.507 2.652 2.652 6.598 5.282 6.598 4.006 0 8.487-8.626 5.454-10.5-1.82-1.125-1.038-2.5 1.424-2.5 5.558 0 11.708 9.353 10.173 15.472-1.427 5.685-9.452 11.534-15.807 11.521-1.81-.004-4.61-.876-6.222-1.94zm121.734-30.777c3.483-3.723 16.85-30.792 19.598-39.688 1.12-3.626 1.78-7.26 1.467-8.077-.371-.966.314-1.82 1.961-2.447 8.06-3.064 53.623-6.571 55.065-4.239 2.366 3.828-14.588 21.201-32.046 32.84-11.758 7.838-40.093 22.626-45.847 23.927l-3 .678zM94.569 92.616c-.09-2.981 5.47-19.516 9.86-29.322 4.368-9.759 11.295-20.83 18.48-29.54 3.435-4.162 4.482-2.728 6.702 9.172 2.301 12.332 2.557 23.508.52 22.727-3.498-1.343-17.275 8.677-28.812 20.954-3.694 3.931-6.732 6.635-6.75 6.009z" fill="#675436"/><path className="pikachu12" d="M323.613 351.67c.048-1.164.285-1.401.604-.603.29.721.254 1.584-.079 1.916-.332.332-.568-.258-.525-1.312zm-4.514-23.123c-.543-1.425-.428-1.54.56-.56.683.679.99 1.486.682 1.793-.308.308-.867-.247-1.242-1.233zm-17.898-29.96c-.367-.366-.667-1.131-.667-1.7 0-.626.466-.567 1.184.15.65.651.95 1.416.666 1.7-.284.285-.816.217-1.183-.15zm-82.667-57.333c0-.55.45-1 1-1s1 .45 1 1-.45 1-1 1-1-.45-1-1zm-97.5-15c-.34-.55.084-1 .941-1 .858 0 1.56.45 1.56 1s-.424 1-.942 1c-.517 0-1.219-.45-1.559-1zm-16-30c-.34-.55-.141-1 .441-1 .583 0 1.06.45 1.06 1s-.2 1-.442 1-.719-.45-1.059-1zm-31.1-10.54c-.857-3.417 1.228-10.477 4.15-14.05l2.378-2.91.036 2.715c.047 3.534 3.298 5.442 6.663 3.91 1.503-.686 2.373-.72 2.373-.093 0 1.887-4.139 9.784-6.02 11.487-1.763 1.595-2.005 1.598-3.552.052-1.766-1.766-4.095-1.574-3.678.304.526 2.365-1.744.997-2.35-1.416zm81.012-14.721c-3.111-2.852-3.684-4.022-3.684-7.525 0-4.81 3.408-11.236 4.091-7.714 1.27 6.552 8.604 7.45 11.715 1.435 1.064-2.058 1.196-3.515.488-5.379-.831-2.185-.697-2.556.926-2.556 1.044 0 3.232 1.122 4.86 2.492 3.862 3.249 5.186 10.342 2.654 14.207-1.316 2.009-1.866 2.266-2.533 1.185-1.352-2.187-8.089 1.78-7.712 4.541.237 1.734-.326 2.126-3.419 2.383-3.043.252-4.357-.294-7.386-3.07zm123.588-27.278c0-.297 1.575-2.879 3.5-5.737 1.925-2.859 3.5-5.574 3.5-6.034 0-.46 2.182-5.192 4.849-10.514 5.03-10.038 8.838-20.493 9.353-25.676.28-2.809.68-3.077 6.298-4.208 15.488-3.117 49.5-4.451 49.5-1.942 0 4.493-17.712 21.536-32.824 31.583-8.353 5.553-41.281 23.039-43.426 23.06-.412.004-.75-.236-.75-.532zM96.074 88.254c1.033-5.358 7.269-21.624 11.5-30 5.975-11.824 17.337-27.119 18.864-25.394 1.015 1.146 4.039 16.974 4.8 25.125.52 5.568.386 6.269-1.199 6.269-4.212 0-18.838 10.843-28.823 21.367l-5.818 6.133z" fill="#181212"/></svg>