<svg viewBox="0 0 533.89 345.91" xmlns="http://www.w3.org/2000/svg">
<path className="wlr1" d="M354.44 116.164a105.37 107.91 0 01-105.37 107.91 105.37 107.91 0 01-105.37-107.91A105.37 107.91 0 01249.07 8.254a105.37 107.91 0 01105.37 107.91zm-202.39 35.413l157.96-125.08-57.997 200.18-66.817-196.71 164.91 118.67z" fill="none" stroke="#0d0d0d" stroke-miterlimit="6.5" stroke-width="16.508"/><g aria-label="Whole Lotta Red">
<path className="wlr2" d="M0 332.513q0 6.108 4.257 9.532 3.701 3.053 10.179 3.609v-2.129q-4.905-.37-8.236-2.868Q2.5 337.88 2.5 333.069q0-4.905 4.349-8.144 3.979-2.868 9.068-2.868 6.478 0 11.012 4.35l9.902-7.034 7.032 7.033q9.254-8.143 19.895-8.143 2.129 0 5.183.555l.555-2.128q-2.129-.833-4.164-.833v-41.826l7.402-7.403-1.573-1.573-4.626 4.534-7.033-7.218-8.236 8.236v-7.125h-2.22v9.346l-4.257 4.164q.092-1.296.092-2.036t0-.925q0-6.94-5.922-11.66l-8.236 8.236v-7.125h-2.22v9.346l-4.165 4.164q0-5.83-2.22-10.734-1.851-3.887-7.311-3.887t-7.958 4.627q-2.406 4.72-3.794 11.474h1.85q1.759-7.865 7.126-7.865 5.274 0 5.274 7.033v11.66q-8.513 0-8.513 7.587 0 2.591 1.11 5.922l2.129-.462q-.555-1.48-.555-2.406 0-1.666 1.018-3.054 1.11-1.388 2.683-1.388 1.11 0 2.128 1.018v19.34q-4.719.74-8.143 2.22-4.071 1.852-6.57 6.016-2.59 4.071-2.59 8.42zm28.501-15.175q-2.128-1.018-4.164-1.481v-35.719l4.164-4.257zm4.072 2.405l-1.85-1.388v-16.008q1.757-.833 3.608-.833 1.758 0 3.424.833v13.51zm1.573-20.172q-1.85 0-3.424.647v-11.567q.925.185 1.758.37.926.093 1.944.093 1.665 0 3.33-.463v11.567q-1.665-.647-3.608-.647zm.185-12.585q-2.406 0-3.609-.648v-12.677l3.702-3.702q3.33 2.406 3.33 7.033v9.346q-1.387.648-3.423.648zm14.713 33.22l-4.256-4.349v-35.811l4.256-4.165zm9.254-3.794q-3.424.648-7.033 2.406v-16.471q2.684-.74 3.609-.74t3.424.74zm-3.331-16.841q-2.314 0-3.702.647v-11.567l3.702.556q.555.185 3.33-.556v11.567q-1.387-.647-3.33-.647zm-.186-12.493q-1.573 0-3.516-.74v-12.677l3.98-3.98 3.053 3.147v13.51q-1.943.74-3.517.74zM74.901 321.178l1.388 1.665 2.961-2.59 5.182 4.904 7.588-6.385-1.48-1.666-1.944 1.666-2.128-2.036v-14.99l7.496-6.478 2.313 2.128v23.69q-2.869 3.145-2.869 6.57 0 2.035 2.406 6.107t2.406 5.09q0 2.22-3.979 5.551l1.296 1.573q2.035-1.573 3.331-2.776 1.295-1.11 2.036-1.85 2.96-3.24 2.96-6.2 0-1.944-3.423-5.923t-3.424-4.997q0-1.48 1.666-2.498 1.295-.925 3.054-.925 1.388 0 3.053.832l.926-1.758q-1.666-.925-2.962-1.018v-21.838l4.905-4.257-1.388-1.573-2.961 2.499-5.09-4.905-11.752 10.087V276.02q0-3.609.463-5.274.37-.926 1.018-2.036.647-1.203 1.665-2.591l-1.48-.925q-4.072 3.793-5.737 8.698-.463-2.406-.833-3.887-.278-1.573-.463-2.313l-1.758.555q.37 2.869.463 4.534.185 1.666.185 2.221v41.734zM111.953 320.946l1.48 1.666 2.591-2.313 6.94 4.904q7.68-6.015 18.693-6.015v-2.128h-2.221v-20.08l4.534-4.072-1.388-1.666-2.961 2.591-6.57-4.811q-4.164 3.793-8.884 4.996-3.794 1.11-9.994 1.11v2.13h2.314v19.71zm21.005-3.33q-1.573.37-2.868.832t-2.314.925l-4.812-3.516v-18.97q3.147-.648 6.015-2.128l3.98 2.868zM147.17 320.946l1.48 1.759 3.146-2.591 5.275 4.997 8.513-7.403-1.48-1.573-3.054 2.776-2.128-2.036V275.88q0-5.46 3.053-9.53l-1.48-1.204q-4.535 4.812-5.83 9.069-.185-1.11-.463-2.684t-.74-3.609l-2.036.648q1.018 4.072 1.018 6.663v41.27zM167.705 320.946l1.389 1.759 2.22-2.129 7.403 4.535 13.696-8.976-1.203-1.851-8.236 5.552-4.257-2.591v-5.182l16.472-10.92-9.81-12.214q-7.124 6.015-17.303 6.015v2.128q1.203.093 1.758.185h1.018q.463 0 1.388-.092v19.617zm20.266-17.674l-9.254 6.293v-13.696l2.499-.833zM244.52 345.7q3.701 0 7.31-1.666l-.74-1.943q-4.164 1.48-7.31 1.48-4.813 0-8.699-3.608-3.794-3.61-3.794-8.421 0-6.2 5.46-9.994 4.811-3.331 11.382-3.331 11.66 0 19.617 8.235l9.069-8.976-1.573-1.573-2.591 2.684q-1.203-1.018-2.406-1.85t-2.499-1.482v-26.928l1.85-1.665-2.59-2.776-2.869 2.776 1.48 1.666v26.002q-6.014-2.22-12.029-2.22-10.456 0-17.582 5.736t-7.125 13.88q0 6.2 4.812 10.18 4.627 3.794 10.827 3.794zm.74-36.46l1.388 1.759 8.328-6.848v-34.33q2.591-2.314 4.257-2.314 3.146 0 8.42 7.31l8.329-8.143-1.388-1.48-2.129 1.943q-4.626-4.72-8.698-4.72-3.331 0-6.662 2.777l-9.162 7.587v34.331zM237.21 311l-2.962 2.406 1.296 1.665 8.698-6.94v-32.943l1.296-1.11-1.296-1.666-7.033 5.645v11.567q-8.513 0-8.513 7.958 0 2.221 1.018 5.46l2.313-.926q-.555-1.11-.555-2.313 0-1.666 1.018-2.869t2.591-1.203q1.018 0 2.128.833zm-13.048-37.755q0 4.35 4.534 8.606l1.48-1.48q-3.516-2.962-3.516-6.663 0-1.85 1.11-3.146 1.204-1.388 3.054-1.388 1.666 0 5.275 1.295 3.331 1.203 5.274 1.203 2.684 0 6.2-2.498.185-.093 1.48-1.11 1.296-1.111 3.887-3.24l-1.388-1.48q-2.96 2.22-5.09 2.22l-5.274-1.665q-4.719-1.48-7.217-1.48-3.887 0-6.848 3.516t-2.961 7.31zM278.048 320.946l1.48 1.666 2.591-2.313 6.94 4.904q7.681-6.015 18.693-6.015v-2.128h-2.221v-20.08l4.534-4.072-1.388-1.666-2.961 2.591-6.57-4.811q-4.164 3.793-8.884 4.996-3.793 1.11-9.993 1.11v2.13h2.313v19.71zm21.005-3.33q-1.573.37-2.868.832t-2.314.925l-4.811-3.516v-18.97q3.146-.648 6.014-2.128l3.98 2.868zM314.19 320.946l1.388 1.666 2.961-2.498 5.46 4.997 8.42-7.033-1.387-1.666-3.24 2.776-1.942-1.85v-22.95h2.498q3.054 0 4.072-2.405l2.035-5.09-1.943-.833-1.295 2.869h-5.367v-14.898l3.886-3.424-1.388-1.666-8.976 7.588v12.4h-2.036q-1.85 0-3.146 2.961l-1.943 4.905 1.943.832 1.388-3.238h3.794v22.208zM335.878 320.946l1.388 1.666 2.961-2.498 5.46 4.997 8.42-7.033-1.387-1.666-3.24 2.776-1.942-1.85v-22.95h2.498q3.054 0 4.072-2.405l2.035-5.09-1.943-.833-1.295 2.869h-5.367v-14.898l3.886-3.424-1.388-1.666-8.976 7.588v12.4h-2.036q-1.85 0-3.146 2.961l-1.943 4.905 1.943.832 1.388-3.238h3.794v22.208zM375.518 316.782q0 4.627 3.517 8.421l8.698-6.94-1.388-1.666-2.591 2.129q-1.758-2.406-1.758-6.478V297.35l4.904-3.98-1.388-1.665-3.146 2.406-5.09-5.09q-4.256 6.293-12.4 8.421l-.462-.555q3.609-.37 3.609-3.794 0-1.666-1.203-2.683-1.11-1.11-2.684-1.11-3.979 0-3.979 3.978 0 2.591 7.31 10.18l-5.644 5.274q-4.164 3.886-4.164 8.42 0 6.293 8.05 8.051zm0-2.868l-6.107 5.274q-1.11 0-2.314-.462-1.11-.556-2.035-1.388-.926-.926-1.573-2.036-.556-1.11-.556-2.221 0-2.036 2.221-4.442.926-.925 1.85-1.758t1.852-1.758l2.406 2.683 1.665-1.48-6.385-7.126q3.887-1.11 7.033-3.146l1.943 1.758zM433.432 296.424v19.525q-5.182 1.203-8.976 5.83-3.702 4.35-3.702 9.81t3.887 9.715q4.072 4.35 9.439 4.35.277 0 1.573-.093t3.701-.278l-.463-2.22-2.776.277q-.925.185-.74.185-4.812 0-8.513-3.331-3.61-3.146-3.61-7.958t3.702-7.588q3.424-2.406 8.329-2.406 5.737 0 10.086 4.164l9.624-8.883-1.48-1.574-3.517 3.332q-.74-.648-1.573-1.203-.74-.648-1.666-1.296v-19.617l4.442-3.24q3.424 3.425 4.256 7.774l3.24 15.731q.74 3.609 2.128 5.367 1.202 1.573 4.349 3.61l8.79-8.144-1.48-1.48-3.239 2.96q-2.035-1.202-2.776-2.405-1.018-3.147-1.295-4.997-.926-5.553-2.036-9.532-1.018-3.979-2.22-6.57-1.574-3.238-5.183-5.46 7.125-5.551 9.346-7.957 2.499-2.776 2.499-7.588 0-6.385-7.033-12.863l-13.788 9.994v-8.883h-2.128v10.456l-4.164 2.961q0-5.737-1.851-9.623-2.684-4.905-7.773-4.905-9.809 0-11.66 16.286h1.944q1.665-7.958 7.217-7.958 5.09 0 5.09 7.31v11.568q-8.513 0-8.513 7.588 0 2.59 1.11 5.922l2.128-1.203q-.555-1.203-.555-2.128 0-1.666 1.018-2.961t2.684-1.296q1.203 0 2.128.925zm11.197 19.525q-2.591-.462-4.164-.462v-35.812l4.164-2.96zm16.471-37.014q0 5.09-4.997 8.698l-9.346 6.663V275.05l8.143-5.923q3.332 3.239 4.164 4.35 2.036 2.59 2.036 5.46z"/>
<path className="wlr3" d="M473.87 320.946l1.388 1.759 2.221-2.129 7.403 4.535 13.695-8.976-1.203-1.851-8.235 5.552-4.257-2.591v-5.182l16.471-10.92-9.809-12.214q-7.125 6.015-17.304 6.015v2.128q1.203.093 1.758.185h1.018q.462 0 1.388-.092v19.617zm20.265-17.674l-9.253 6.293v-13.696l2.498-.833zM502.695 321.178l1.48 1.573 2.314-2.128 7.125 4.534q7.403-6.015 18.97-6.015v-2.128h-2.498v-19.988l3.794-3.516-1.296-1.666-2.868 2.59-18.785-20.912 2.868-2.591-1.48-1.573-7.68 6.847 14.527 16.194q-5.46 2.591-11.104 2.591h-1.018q-.833 0-2.406-.092v2.128l2.499.092v20.08zm20.913-3.702l-5.182 1.759-4.812-3.054v-19.525q4.442-1.018 7.218-2.314l2.776 2.591z"/></g></svg>
